<?xml version="1.0" encoding="UTF-8"?>
<!DOCTYPE svg PUBLIC "-//W3C//DTD SVG 1.1//EN" "http://www.w3.org/Graphics/SVG/1.1/DTD/svg11.dtd">
<!-- Creator: CorelDRAW 2021 (64-Bit) -->
<svg xmlns="http://www.w3.org/2000/svg" xml:space="preserve" width="500mm" height="500mm" version="1.1" style="shape-rendering:geometricPrecision; text-rendering:geometricPrecision; image-rendering:optimizeQuality; fill-rule:evenodd; clip-rule:evenodd"
viewBox="0 0 50000 50000"
 xmlns:xlink="http://www.w3.org/1999/xlink"
 xmlns:xodm="http://www.corel.com/coreldraw/odm/2003">
 <defs>
  <style type="text/css">
   <![CDATA[
    .fil41 {fill:#F88136}
    .fil20 {fill:#F97625}
    .fil46 {fill:#F97C2E}
    .fil34 {fill:#F97E31}
    .fil11 {fill:#FA7522}
    .fil38 {fill:#FA792A}
    .fil17 {fill:#FA8339}
    .fil39 {fill:#FA8E4B}
    .fil21 {fill:#FA9353}
    .fil19 {fill:#FAA976}
    .fil22 {fill:#FABB94}
    .fil2 {fill:#FC7622}
    .fil14 {fill:#FC7825}
    .fil47 {fill:#FCAB7A}
    .fil35 {fill:#FCB68B}
    .fil7 {fill:#FCF9F6}
    .fil29 {fill:#FDB587}
    .fil23 {fill:#FDC7A5}
    .fil26 {fill:#FDCFB2}
    .fil16 {fill:#FDD1B6}
    .fil27 {fill:#FDDAC5}
    .fil15 {fill:#FDF4EE}
    .fil18 {fill:#FDF5F0}
    .fil5 {fill:#FDF6F3}
    .fil12 {fill:#FDF7F4}
    .fil6 {fill:#FDFAF7}
    .fil9 {fill:#FDFBFA}
    .fil3 {fill:#FDFDFC}
    .fil0 {fill:#FE751F}
    .fil25 {fill:#FE995A}
    .fil37 {fill:#FE9C5F}
    .fil40 {fill:#FEA771}
    .fil28 {fill:#FEAD7A}
    .fil42 {fill:#FEB181}
    .fil53 {fill:#FEB485}
    .fil49 {fill:#FEB689}
    .fil48 {fill:#FEB78D}
    .fil24 {fill:#FEB98F}
    .fil30 {fill:#FEBC93}
    .fil52 {fill:#FEBD94}
    .fil50 {fill:#FEBF98}
    .fil33 {fill:#FEC19B}
    .fil43 {fill:#FEC49F}
    .fil36 {fill:#FEC8A6}
    .fil45 {fill:#FEC9A9}
    .fil51 {fill:#FECBAC}
    .fil44 {fill:#FECCAD}
    .fil10 {fill:#FECDAF}
    .fil32 {fill:#FED4BA}
    .fil31 {fill:#FED7BF}
    .fil8 {fill:#FEF3EC}
    .fil4 {fill:#FEF6F0}
    .fil13 {fill:#FEF7F2}
    .fil1 {fill:#FEFEFE}
   ]]>
  </style>
 </defs>
 <g id="Layer_x0020_1">
  <metadata id="CorelCorpID_0Corel-Layer"/>
  <g id="_2619527574576">
   <path class="fil0" d="M35125.82 10845.56l-58.77 217.72 311.08 -52.97c747.57,-528.44 2682.33,-1498.42 3837.08,-1103.14 689.83,236.15 813.72,852.78 1008.33,1527.11 203.59,705.37 440.07,1273.98 717.37,1825.23 526.93,1047.4 1360.36,2215.69 2083.2,2993.75 1178.22,1268.25 2374.2,2103.94 2642.83,2400.99 -40.5,413.75 -526.04,2046.65 -691.05,3502.99 -204.48,1804.19 -256.82,3947.67 641.58,5556.17 299.53,536.31 537.56,1087.49 46.85,1646.46 -430.62,490.52 -2090.99,1397.68 -3075.15,1179.62l-145.22 83.02c-127.02,46.03 -66.93,45.89 -254.2,76.82 -181.69,29.98 -406.47,11.11 -589.79,3.43l-75.12 291.71c185.5,46.99 3917.43,2897.1 1592.48,4604.87 -1662.47,1221.19 -2632.23,2072.45 -3786.79,4035.63 -348.41,592.38 -612.24,1022.18 -923.58,1716.04 -281.66,627.74 -443.32,1298.27 -697.59,1919.81 -2946.45,261.73 -5718.85,525.08 -7762.96,2016.82 -991.28,723.43 -1526.18,2163.71 -2986.5,895.78 -556.32,-482.99 -1824.87,-2258.54 -1820.77,-3037.41 -155.38,-81.03 -145.19,-48.36 -300.38,-97.2 -208.97,999.55 -1932.95,4360.16 -3638.02,3232.73 -1580.52,-1045.06 -1975.29,-1755.05 -4790.96,-2508.12 -672.52,-179.85 -1272.91,-305.59 -2048.46,-407.43 -637.08,-83.69 -1756.46,65.59 -2294.75,-156.71 -344.27,-233.27 -1281.84,-4103.08 -3971.74,-6482.96 -1157.4,-1024.03 -2808.69,-1112.22 -2273.82,-2580 390.37,-1071.17 1628.62,-2720.24 2330.78,-2926.45 94.5,-216.36 45.48,-118.87 101.41,-398.24 -460.37,11.22 -1903.09,-69.55 -2274.2,-402.12 -892.24,-12.95 -2014.05,-828.41 -1924.16,-1903.08 49.35,-590.09 639.81,-1573.62 812.5,-3109.25 146.26,-1300.67 81.07,-2421.38 -24.59,-3722.27 -37.46,-461.66 -161.57,-1259.8 -284.69,-1647.48 -127.24,-400.79 -404.44,-1015.39 -443.42,-1480.85 371.77,-360.85 874.3,-731.07 1311.45,-1114.66 5417.92,-4753.85 3139.85,-7352.02 5117.47,-7604.55 730.44,-93.29 1529.98,148.69 2145.58,410.6 375.21,159.63 1469.85,624.83 1566.79,884.93 619.29,115.36 192.59,81.18 340.14,-96.05l-241.47 -1269.1c-164.75,-1275.24 -189.15,-2731.32 738.79,-3267.58 467.42,-270.15 1315.47,-137.77 1994.93,-144.38 4083.37,-39.65 7703.34,-2970.75 7811.98,-2975.77l3039.15 1699.1c967.29,448.29 2330.45,1030.41 3507.53,1163.19 2326.76,262.47 4840.86,-1717.36 3678.85,4603.25zm13355.86 15621.41c363.21,-5110.6 -1026.43,-9843.82 -3548.5,-13976.99 -1339.51,-2195.16 -3566.89,-4639.57 -5636.06,-6179.96 -3637.69,-2708.06 -7914.98,-4483.5 -12780.94,-4792.88 -9336.99,-593.63 -18338.89,4506.04 -22480.07,12778.03 -3091.16,6174.61 -3394.12,12829.67 -936.79,19324.33 676.8,1788.76 1990.76,4151.33 3166.1,5622.44l1332.71 1596.47c1497.24,1760.22 4029.14,3791.7 6688.06,5129.24 2786.98,1401.97 5697.34,2211.52 9234.58,2514.77 3526.25,302.34 7129.72,-460.92 10088.76,-1586.79 8357.92,-3180.06 14211.74,-11136.49 14872.15,-20428.66z"/>
   <path class="fil0" d="M27015.23 32850.56c1054.11,242.09 1491.74,396.69 1908.66,1214.36 1160.02,2275.08 -1579.82,4406.71 -3507.27,2723.53 -299.56,-261.62 -469.63,-809.52 -711.65,-960.39 -5.65,5.39 -1371.95,2646.49 -3504.68,1172.35 -1613.27,-1115.06 -1165.12,-3651.24 779.9,-4059.52 732.29,-153.71 376.42,-146.77 569.97,-834.72 169.33,-601.9 789.95,-1178.67 1301.19,-1405.29 713.6,-316.32 1682,-83.13 2201.02,282.59 748.46,527.37 761.53,960.12 962.86,1867.09zm5078.49 -14118.93c236.52,333.45 129.28,304.92 228.65,484.55 225.85,-225.89 58.07,-186.35 390.12,-454.76 96.2,-304.92 325.96,-392 700.87,-242.68 88.82,35.36 289.53,179.74 355.64,248.18 208.57,215.88 97.61,69.29 222.9,323.67 139.39,59.25 -8.31,-63.42 205.47,135.33l943.29 1381.51c-272.4,479.31 -740.74,760.49 -818.56,1349.1l-24.03 599.06c36.44,-81.21 55.01,-163.2 107.79,-244.6 123.85,-190.85 44.49,-67.85 183.29,-193.36 30.42,-440.4 540.73,-1170.76 1191.8,-1257.77 600.83,1451.83 858.24,1871.26 682.38,3745.89 -85.16,907.56 -404.26,696.88 -1116.57,1074.08 -453.87,240.36 -1119.38,836.57 -1243.38,885.26 60.14,218.43 -133.85,188.05 225.59,154.75 240.83,-276.49 1507.8,-1070.68 2095.08,-1020.18 268.45,482.11 248.99,1402.7 60.25,2001.13 -242.13,767.72 -124.48,1116.39 -1079.18,1082.24 -138.76,119.68 129.2,36.66 -273.54,220.64 775,-18.97 1092.02,-200.78 1026.02,685.37 -17.09,229.54 -68.63,444.68 -139.06,660.56 -22.41,68.62 -73.31,220.53 -107.09,279.15 -189.64,328.62 -51.42,101.52 -214.07,238.77 -310.02,586.06 -1107.31,1410.01 -2026.9,1458.48l-1157.85 -66.49c350.77,135.55 301.05,-42.45 700.54,169.3l132.45 125.65c290.67,-21.66 546.9,66.56 777.29,260.33 -442.61,2087.26 -3503.58,3810.16 -4421.84,2380.25l-135 -310.53c-565.91,-1879.13 -1213.18,-1537.18 -1042.41,-2334.29 153.97,-718.66 660.82,-319.24 273.69,-1479.56 -133.05,-398.76 -489.17,-955.51 -561.78,-1283.28 20.53,-127.06 3538.06,-2590.48 3962.21,-5567.06 177.75,-3037.82 -1023.14,-4801.7 -3321.32,-6323.57 -673.71,-446.11 -634.1,-233.78 -764.59,-609.72 553.1,-341.32 1973.34,-449.52 2660.33,-207.43 636.23,224.19 1346.29,942.56 1321.52,1652.03zm-12191.81 15841.5c-141.13,1672.55 -1972.01,1240.83 -2778.72,736.98 -432.83,-270.37 -1881.34,-1654.47 -1778.94,-2495.32l507.51 -193.32 203.74 -229.28c-579.2,13.14 -937.98,208.16 -1232.16,-337.96 -454.09,-109.71 -1287.3,-1048.47 -1299.15,-1571.52 -204.33,-216.36 -11.26,203.37 -183.65,-255.63 -23.56,-62.69 -47,-268.3 -53.49,-340.77 -20.12,-223.22 -20.27,-400.9 -2.4,-622.2l145.66 -258c-293.51,-60.32 -109.23,-98.82 -248.62,-222.75 14.4,-384.76 -1125.88,-3019.32 67.33,-2981.08 86.9,2.81 248.66,70.88 295.32,90.15 434.2,179.15 1019.27,465.94 1275.53,820.95l125.96 -50.61 201.44 79.26 -57.29 -200.97c-1283.94,-1408.9 -2123.1,-479.6 -2251.27,-2023.24 -109.08,-1313.81 128.69,-2695.73 733.14,-3583.43 519.17,53.23 1178.03,771.64 1139.09,1300.89 291.55,357.08 106.83,445.68 338.18,784.37l-1 -841.63c-181.77,-906.56 -625.2,-911.5 -873.01,-1472.95 142.57,-378.93 2083.49,-3348.61 2474.87,-1747.19l164.82 160.88c184.91,150.79 -57.69,14.02 175.09,99.96l208.09 -516.85c103.88,-1611.08 2346.03,-2143.36 4027.59,-1414.84 -86.05,290.52 -788.65,578.94 -1407.35,1070.13 -577.91,458.78 -929.93,783.12 -1354.93,1286.75 -752.04,891.13 -1437.33,2340.27 -1393.96,3794.47 86.5,2900.24 2361.28,5062.43 4057.16,6291.52 -84.09,452.77 -691.23,1494.59 -654.13,2016.75 30.23,425 97.05,210.82 308.98,593.78 474.72,857.72 -292.63,731.22 -879.43,2232.7zm9054.14 -8321.04c171.98,108.9 76.3,-88.89 247.22,214.88 -72.62,307.69 -123.45,336.37 -331.8,548.53l-1005.42 38.09c-377.9,684.89 -1979.46,1219.24 -3059.67,1217.65 -1386.39,-2.07 -2416.17,-564.73 -3086.29,-1189.22 -776.51,-39.69 -1267.82,224.92 -1418.39,-615.05 162.76,-274.68 65.04,-115.95 253.83,-206.94 180.29,-491.79 171.24,-388.68 -67.34,-955 -456.6,-1083.64 -370.33,-2488.78 61.1,-3488.22 141.12,-326.92 263.68,-549.22 498.31,-857.54 688.25,-904.49 -17.49,-461.36 588.21,-799.21 624.83,-348.44 1008.3,-663.29 1702.42,-938.61 429.32,-312.96 518.32,-22.07 343.9,-404.55 6.09,-203.59 364.28,-743.73 524.3,-1052.12 192.81,-371.44 297.46,-910.62 649.75,-1017.49l-252.36 1623.31 1032.11 57.81 -243.86 608.21c1201.55,249.44 1266.12,291.48 2159.21,875.66 623.86,408.1 374.21,23.78 778.94,683.53 218.98,356.93 395.25,524.12 591.75,878.43 550.59,992.76 703.53,2540.87 272.62,3724.99 -203.03,557.83 -412.86,444.76 -238.54,1052.86zm-4491.73 -12657.98c45.92,-360.14 7.13,-398.5 240.65,-666.69 268.97,98.31 154.49,-24.99 241.54,258.96 -35.44,1176.86 357.11,852.52 1318.2,880.98 -68.81,318.03 -603.41,613.16 -809.03,737.05 6.83,677.65 185.5,701.02 261.14,1246.37 -555.5,-144.53 -483.04,-450.29 -1034.81,-616.82l-546.2 447.34c-174.75,310.01 67.26,200.26 -422.6,255.97 28.65,-213.7 -26.95,-143.2 80.73,-355.57 100.85,-198.82 54.38,-69.84 195.47,-203.18l101.7 -635.31c-336.89,-447.52 -754.8,-421.02 -840.12,-863.74 727.23,-32.15 1187.23,253.5 1213.33,-485.36zm-12524.31 12775.19c395.77,3914.62 1933.32,6639.44 4197.18,8668.22 8479.33,7598.84 22209.18,1254.42 21451.57,-10428.89 -443.57,-6841.04 -6452.43,-12496.48 -13768.9,-11955.34 -7243.42,535.75 -12549.08,7096.64 -11879.85,13716.01z"/>
   <path class="fil1" d="M48481.68 26466.97c-660.41,9292.17 -6514.23,17248.6 -14872.15,20428.66 -2959.04,1125.87 -6562.51,1889.13 -10088.76,1586.79 -3537.24,-303.25 -6447.6,-1112.8 -9234.58,-2514.77 -2658.92,-1337.54 -5190.82,-3369.02 -6688.06,-5129.24l-1332.71 -1596.47c-1175.34,-1471.11 -2489.3,-3833.68 -3166.1,-5622.44 -2457.33,-6494.66 -2154.37,-13149.72 936.79,-19324.33 4141.18,-8271.99 13143.08,-13371.66 22480.07,-12778.03 4865.96,309.38 9143.25,2084.82 12780.94,4792.88 2069.17,1540.39 4296.55,3984.8 5636.06,6179.96 2522.07,4133.17 3911.71,8866.39 3548.5,13976.99zm-22703.25 22949.85l-1692.93 0c-3316.16,-110.12 -6592.9,-870.64 -9471.98,-2311.26 -692.2,-346.37 -1300.63,-644.2 -1925.68,-1004.09 -353.39,-203.44 -559.34,-314.7 -913.1,-551.77 -330.94,-221.79 -547.12,-366.53 -879.06,-585.84 -608.65,-402.16 -1103.46,-818.26 -1651.06,-1278.71 -334.46,-281.18 -465.21,-376.2 -775.52,-689.35 -147.1,-148.44 -238.58,-253.31 -389.56,-391.71l-1124.07 -1122.11c-887.51,-879.5 -2545.7,-3124.79 -3117.48,-4206.96 -2422.85,-4585.63 -3254.81,-7376.08 -3254.81,-13151.86 0,-6040.69 2912.49,-12199.42 7124.44,-16411.4 1696.28,-1696.25 4733.92,-3964.91 6952.15,-4864.61 710.65,-288.27 1297.83,-593.7 2072.75,-857.02 3542.45,-1203.69 5320.98,-1402.81 9144.36,-1402.81 5241.62,0 11996.94,2712.82 15650.25,6420.69 266.63,270.58 527.07,469.74 761.11,703.75l1438.47 1588.94c1195.87,1370.32 2697.06,3683.5 3438.54,5350.77 1794.26,4034.64 2247.43,6770.05 2247.43,11229.55 0,4016.37 -1513.37,8464.12 -3300.99,11445.5 -1648.92,2750.07 -3030.25,4325.46 -5412.39,6404.33 -1042.33,909.63 -2264.7,1687.99 -3451.34,2408.24 -3348.28,2032.25 -7392.7,3142.25 -11469.53,3277.73z"/>
   <path class="fil2" d="M9993.22 23648.65c296.5,51.5 599.68,194.28 799.91,312.97 76.16,775.73 -397.83,745.09 -1021.88,790.35 2.29,312.97 538.4,179.3 936.09,277.68 142.75,407.91 149.14,296.5 -11.52,703.78 -434.23,87.86 -608.84,95.8 -815.56,-111.74l-1026.8 -64.86 -94.65 -559.12c24.96,-856.65 608.11,-514.56 1076.63,-776.91 -152.53,-425.04 -367.27,-150.8 -929.45,-585.96l37.51 -917.37 441.95 -118.43 1518.39 146.52c105.47,372.77 127.84,357.71 -66.45,701.9 -449.62,96.24 -510.31,-39.87 -977.29,-25.69 28.94,26.25 109.23,189.3 133.12,226.88zm727.52 -2784.8c85.46,609.54 216.58,400.82 589.76,720.17l-212.26 645.1c-379.23,11.07 -1601.01,-464.06 -1828.78,-645.1 32.6,-227.14 90.04,-407.58 200.71,-644.94 455.38,1.14 182.54,90.7 661.3,127.91 -24.81,-592.45 -781.54,-1263.94 22.29,-1773.26 389.94,644.1 40.39,914.8 632.21,811.18 318.73,-55.82 672.34,-331.39 1111.92,-366.16 -30.82,1039.75 -447.45,845.98 -1177.15,1125.1zm26689.2 -1708.95l1962.23 113.07c1133.85,383.8 -492.15,2200.99 -993.76,2403.62 -468.93,-1239.25 211.01,-612.09 -213.26,-1424.78 -307.61,-589.17 -721.24,-200.41 -755.21,-1091.91zm-26158.25 -2210.08l245.23 -341.87c218.68,66.19 999,577.76 1233.3,765.14 284.28,103.03 236.73,67.74 418.98,214.11 -28.38,165.09 27.76,39.24 -33.66,144.41 -97.16,166.45 -60.76,96.06 -146.37,190.89l-259.26 343.79 -1376.78 -804.42 -315.04 -234.04c148.22,-452.73 43.64,-122.56 233.6,-278.01zm25806.53 -1493.18c139.87,-162.05 -215.03,-137.62 244.74,-127.69l310.72 540.26c202.26,378.49 295.8,266.19 11.92,656.79 -269.26,370.41 -366.68,236.18 -430.8,678.32l1071.76 -303.33c208.09,288.45 475.91,586.5 564.91,879.31 -264.42,270.74 -1304.84,979.03 -1626.15,1004.8l-262.24 -316.25c97.16,-325.6 398.05,-439.89 681.97,-524.2l95.98 -286.46 -319.91 -10.08c-280.07,129.46 -477.5,240.5 -856.43,209.72 -119.46,-197.83 -301.08,-331.72 -123.22,-655.17 98.49,-179.08 377.34,-450.15 485.84,-523.2l22.37 -267.6 -199.9 82.36c-402.11,148.03 -298.16,343.12 -825.09,427.36l-264.53 -488.05 1418.06 -976.89zm-24281.53 196.84c774.19,-119.98 1064.86,-1087.01 1628.37,-568.35 707.88,571.19 -653.36,2144.77 -1408.72,1816.26 38.35,-894.12 1040.56,-317.25 1032.33,-1234.18 -782.9,24.29 -891.76,931.33 -1733.76,558.23 -170.77,-451.81 -26.91,-752.55 275.98,-1105.46 364.54,-424.75 550.33,-614.2 1130.71,-595.41 -216.54,905.9 -816.3,296.91 -924.91,1128.91zm23442.41 -704.79l-107.76 132.97c0,327.25 -358.44,149.58 -594.66,100.59 31.34,406.4 73.53,626.82 -69.22,988.52 -640.37,62.9 -161.8,18.34 -348.03,-160.95 -183.8,-300.64 -300.05,-171.07 -322.61,-573.59 -23.07,-411.16 136.81,-343.94 47.7,-851.04l-353.17 -23.3 -262.87 414.45c-325.7,-102.99 -491.16,-264.83 -612.53,-516.44l1249.76 -1360.58c349.29,136.73 1475.5,1175.01 1499.93,1563.91 31.01,493.66 -67.62,257.92 -126.54,285.46zm-22142.07 -1367.7c200.52,-162.17 321.79,-334.53 666.72,-368.49l773.6 1020.19c548.59,-71.51 708.03,-753.18 1258.62,-535.68 3.65,512.75 -1483.66,1402.07 -1543.94,1426.81 -464.32,-414.38 -867.91,-1046.51 -1155,-1542.83zm19082.1 531.87c-397.39,-70.21 -505.96,-160.8 -720.33,-434.23l1049.54 -1537.22c306.8,52.05 393.11,194.21 623.05,324.52 -113.84,573.44 -723.13,1065.52 -952.26,1646.93zm-15042.07 -1332.64l-193.36 167.97c-130.13,117.87 -41.16,-5.58 -150.32,142.78 -275.54,374.47 98.53,180.92 -332.86,420.73 -444.61,190.37 -531.18,278.3 -543.54,-405.96 -8.57,-473.36 -16.5,-1007.67 5.46,-1477.93l751.52 -459.82c274.54,137.14 1566.71,1032.55 1678.75,1338.73 -697.07,542.02 -707.37,-11.96 -1215.65,273.5zm12642.77 -2111.47c355.01,18.16 1026.98,401.86 1326.4,611.83 1058.91,742.59 258.62,2194.75 -936.87,1701.2 -224.85,-92.84 -1042.71,-498.87 -1232.86,-692.01l843.33 -1621.02zm-9050.3 214.92c-440.84,-102.73 -122.15,-56.66 -256.23,60.5 -26.43,668.72 131.83,1102.7 -654.69,1119.71l-307.35 -483.95 -87.42 -80.22c-176.56,-187.75 -122.3,288.09 -163.27,-290.63 -187.98,134.33 -174.76,-234.08 -141.13,292.18 145.63,610.1 439.29,760.86 -406.1,828.52 -129.5,-248.69 -524.72,-1492.33 -516.74,-1841.21 370.74,-139.39 644.94,-250.4 1056.91,-240.21 354.09,628.3 298.39,687.21 678.17,816.49l31.68 -1055.33c251.83,-134.74 674.29,-303 1023.84,-310.24l512.45 1870.97 -593.15 137.81c-99.34,-232.2 -178,-481.34 -176.97,-824.39zm6000.81 -1192.06l418.58 178.33c13.59,550.7 -18.16,213.96 -118.53,341.43 -43.67,472.66 -200.78,557.75 -129.35,1076.74 1133.52,630.92 782.49,-466.31 1120.93,-1142.96l725.9 39.53c-4.54,1245.96 -430.95,2081.43 -1766.91,1691.93 -556.64,-162.28 -938.75,-360.81 -898.33,-1027.16 10.15,-166.86 123.08,-680.01 160.1,-802.87 136.77,-453.98 61.47,-314 487.61,-354.97zm-1638.66 644.94c1633.31,814.61 -1757.09,1935.68 -1881.23,484.29 1172.9,-70.91 791.64,522.42 1458.22,221.01 14.8,-707.44 -1234.7,-247.55 -1404.77,-878.95 -3.03,-950.6 1198.49,-681.71 1847.31,-644.79 354.05,127.28 277.97,48.83 371.11,449.47 -237.15,258.45 -50.76,167.23 -538.3,187.05l147.66 181.92zm-17439.12 17676.63l344.05 20.82c-98.6,-576.02 -146.22,-931.7 49.47,-1437.03 150.17,-191.11 -223.52,-132.79 248.77,-162.06 185.35,266.08 131.38,152.05 195.32,521.57l207.76 -337.58 248.14 -358.67c955.66,5.68 1075.08,998.92 988,1922.39 152.79,-82.14 201.29,-404.44 218.13,-546.93 53.41,-451.96 -164.87,-439.66 177.34,-512.9 -223.71,-4384.34 731.66,-7954.77 3772.39,-11055.05 2500.56,-2549.55 6059,-4413.32 10992.78,-4038.67 4450.6,338 7659.78,2975.14 9566.48,5459.46 900.95,1173.9 2062.6,3496.93 2329.5,5172.03 602.63,3781.96 122.85,3955.42 -281.52,6896.04 299.35,-284.95 346.3,-758.6 506.81,-1365.08 298.24,-1126.69 247.74,-4235.87 7.23,-5332.95 69.74,-31.27 74.65,-47.43 278.6,-44.41 -54.6,-421.31 -213.59,-585.21 112.22,-786.33 294.03,-52.97 1596.07,-334.26 1753.21,-156.33 488.36,552.99 -460.4,1110.15 -580.67,1726.41l902.13 -150.65c124,550.55 140.98,475.32 -51.68,875.7 289.64,-69.14 109.45,18.71 291.11,-169.15 21.19,-21.89 36.99,-43.67 56.85,-67.92l146.7 -250.25c285.54,1483.51 -99.48,3360.17 45.52,4070.27 171.54,-199.09 62.05,37.24 129.65,-360.56 28.53,-168 35.21,-379.08 52.71,-535.45 112.41,-1003.17 115.51,-2260.53 7.35,-3249.71 -388.2,-3550.43 -1756.94,-6735.43 -4018.73,-9324.21 -2686.13,-3074.48 -7083.21,-5570.42 -12330.21,-5589.14 -9813.49,-35 -17986.94,8560.62 -16365.41,19166.34z"/>
   <path class="fil3" d="M17197.98 18701.87c22.96,333.64 2.55,489.17 -109.89,722.88 -401.9,-18.57 -342.1,-19.02 -438.11,-466.87 -391.38,-1601.42 -2332.3,1368.26 -2474.87,1747.19 247.81,561.45 691.24,566.39 873.01,1472.95 318.58,226.07 210.23,699.69 92.32,1069.22 -311.82,-37.99 -311.45,3.61 -388.23,-294.48 -60.47,-234.81 -54.67,-494.99 -41.27,-717.48 38.94,-529.25 -619.92,-1247.66 -1139.09,-1300.89 -604.45,887.7 -842.22,2269.62 -733.14,3583.43 128.17,1543.64 967.33,614.34 2251.27,2023.24 279.93,130.13 378.71,129.32 544.24,629.89 -578.31,-96.21 -581.04,-302.3 -688.39,-508.18l-125.96 50.61c-227.65,-7.27 -151.98,58.51 -271.43,-82.69 -418.36,194.8 -34.41,-145.19 -160.44,156.15 -1.36,3.29 5.24,25.51 4.8,28.02l47.77 42.75c-204.22,-388.35 102.4,-21.49 -204.95,-190 -20.68,-11.3 -48.36,-23.92 -69.29,-31.79l-302.01 26.95c346.53,-367.34 -85.31,-373.25 -97.16,-390.63 -515.63,72.57 -219.64,8.49 -621.57,273.94l-159.22 116.21c0,188.53 -5.28,214.26 32.82,400.68l357.82 1643.83c451.76,-1.26 580.52,-56.37 960.97,-77.52 371.63,-20.67 280.19,-27.28 210.94,180.99 864.44,0 273.76,-103.84 671.48,90.74 786.37,384.73 492.19,172.87 741.92,513.34 194.4,346.23 279.78,121.82 441.73,572.37 -553.4,-82.8 -829.37,-578.61 -1519.87,-574.07l-1502.15 -166.56 142.16 1236.62c11.85,523.05 845.06,1461.81 1299.15,1571.52 782.05,355.53 521.95,100.07 1045.77,220.09 -260.29,-335.01 1120.6,-193 1221.63,-187.79 207.76,10.74 96.83,32.23 296.47,-15.88 293.11,-70.58 85.02,21.53 285.8,-134.77 -131.9,101.07 463.24,791.09 -195.32,879.39 -124.74,-164.53 -204.55,-234.78 -781.42,-192.59 -1225.47,89.67 -681.93,330.25 -616.11,773.08 0.99,6.72 52.19,314.67 54.63,321.13 75.79,201.04 410.42,665.02 722.5,447.81 5.65,-3.91 18.24,-33.59 21.97,-37.54 3.91,-4.1 20.19,-29.75 13.47,-43.3l535.34 855.58c3.7,4.98 20.34,21.04 23.04,25.77l18.6 51.46c1.15,6.72 -0.99,31.3 -0.36,39.42l9.34 297.35 725.67 -60.8 640.55 320.76c6.5,-343.86 65.05,-351.8 97.68,-650.59 201.45,473.8 35.15,100.63 390.64,292.96 -11.41,-754.44 -145.67,-595 0,-488.28l0.22 -97.68c244.56,0.85 1.73,-20.3 13.03,68 1.15,8.93 -6.27,39.02 -3.06,50.24l282.77 370.08c-1.89,-30.16 -181.66,-301.82 275.72,-585 586.8,-1501.48 1354.15,-1374.98 879.43,-2232.7 -211.93,-382.96 -278.75,-168.78 -308.98,-593.78 -37.1,-522.16 570.04,-1563.98 654.13,-2016.75 -1695.88,-1229.09 -3970.66,-3391.28 -4057.16,-6291.52 -43.37,-1454.2 641.92,-2903.34 1393.96,-3794.47 425,-503.63 777.02,-827.97 1354.93,-1286.75 618.7,-491.19 1321.3,-779.61 1407.35,-1070.13 -1681.56,-728.52 -3923.71,-196.24 -4027.59,1414.84z"/>
   <path class="fil3" d="M32197.78 24220.32c-424.15,2976.58 -3941.68,5440 -3962.21,5567.06 72.61,327.77 428.73,884.52 561.78,1283.28 387.13,1160.32 -119.72,760.9 -273.69,1479.56 -170.77,797.11 476.5,455.16 1042.41,2334.29l135 310.53c271.84,27.02 274.87,41.01 569.97,158.4 0.51,-312.67 17.53,-197.2 -96.68,-291.99 823.94,1047.76 1406.2,-60.84 1617.54,-135.04l822.95 -158.92 11 -358.37c-58.51,-247 65.56,-63.5 -108.68,-129.94 74.09,46.21 288.24,-97.61 683.64,-97.64l-195.32 -195.32 243.86 -530.58c400.45,-834.51 22.37,461.1 164.64,-269.11 4.95,-25.33 14.69,-52.31 15.25,-80.04 0.59,-30.41 -0.96,-57.47 -5.21,-89.11 -22.81,-169.88 3.36,-383.81 -509.98,-379.04 -411.27,3.8 -617.11,176.93 -1275.79,176.93 -16.02,-17.2 -199.86,-344.27 -96.68,-586.91 80.4,-19.57 312.19,-23.92 431.21,-29.13 246.7,3.88 459.33,-107.05 836.53,-119.68 32.78,-1.07 487.5,12 497.43,13.96 544.83,107.82 237.33,28.38 363.73,232.49 919.59,-48.47 1716.88,-872.42 2026.9,-1458.48 222.63,-745.21 328.02,-779.39 283.06,-1699.24 -623.75,-17.69 -1200.66,33 -1721.02,212.29 -485.65,167.38 -905.75,538.6 -1331.82,585.04 154.63,-732.92 1606.32,-1166.52 2477.52,-1182.58 954.7,34.15 837.05,-314.52 1079.18,-1082.24 188.74,-598.43 208.2,-1519.02 -60.25,-2001.13 -587.28,-50.5 -1854.25,743.69 -2095.08,1020.18 -134.22,206.36 70.88,262.54 -543.43,349.07 26.58,-144.52 -44.22,-91.44 49.84,-249.91 137.58,-231.87 57.14,-101.67 268,-253.91 124,-48.69 789.51,-644.9 1243.38,-885.26 712.31,-377.2 1031.41,-166.52 1116.57,-1074.08 175.86,-1874.63 -81.55,-2294.06 -682.38,-3745.89 -651.07,87.01 -1161.38,817.37 -1191.8,1257.77 -52.31,875.33 -50.21,901.84 -313.6,1013.95 -145.18,-235.04 -196.98,-639.22 -140.64,-868.54 105.87,-430.65 29.12,-162.28 187.19,-306.51 77.82,-588.61 546.16,-869.79 818.56,-1349.1l-943.29 -1381.51c-213.78,-198.75 -66.08,-76.08 -205.47,-135.33 -462.14,-75.71 -404.19,-36.4 -488.24,23.96l-9.9 126.14c-178.89,-255.71 -27.53,-151.98 -584.95,-293 -107.2,539.55 57.55,497.51 -354.24,678.54 -821.62,361.21 467.68,-81.95 -274.94,79.99 -22.74,4.99 -88.93,15.88 -112.04,20.71 -486.95,102.04 -628.48,222.31 -410.39,719.44l129.32 277.16c10.18,19.71 23.66,46.15 33.77,64.71 180.81,332.06 160.66,150.84 277.79,675.7 141.64,634.72 405.03,1923.17 128.46,2566.75l-128.76 189.63z"/>
   <path class="fil4" d="M41157.2 27900.91c62.28,958.9 -770.16,3327.75 -1138.43,4126.33 -1110.81,2408.79 -2505.09,4335.35 -4528.56,6009.57 -596.4,493.48 -2470.73,1980.53 -3138.19,1980.23 -17.87,20.94 -46.52,23.3 -57,59.7l-246.08 192.51c-84.38,49.02 -270.99,120.42 -401.74,176.9 -235.89,101.88 -459.27,193.43 -751.12,317.02 -2810.31,1190.07 -6473.21,1411.27 -9461.49,724.02 -1005.72,-231.31 -2782.08,-634.09 -3319.23,-1127.87 -387.09,-71.13 -2154.63,-934.73 -2492.4,-1443.12 -467.57,-124.63 -1692.85,-1199.45 -2043.77,-1564.32 -259.29,-195.35 -408.13,-305.66 -569.64,-630.25 -702.64,-422.79 -2257.84,-2844.5 -2743.79,-3810.9 -785.81,-1562.73 -1276.6,-3031.32 -1633.2,-4902.55 -1621.53,-10605.72 6551.92,-19201.34 16365.41,-19166.34 5247,18.72 9644.08,2514.66 12330.21,5589.14 2261.79,2588.78 3630.53,5773.78 4018.73,9324.21 108.16,989.18 105.06,2246.54 -7.35,3249.71 -17.5,156.37 -24.18,367.45 -52.71,535.45 -67.6,397.8 41.89,161.47 -129.65,360.56zm-26342.98 -17082.82c-76.89,310.98 -135.1,136.63 26.69,225.18 -124.51,-203.66 -150.13,-280.62 -202.92,-600.12 -69.21,-419.03 -63.6,-414.34 -283.4,-675.4l241.47 1269.1c-147.55,177.23 279.15,211.41 -340.14,96.05l-42.56 175.46 243.64 181.26c260.73,159.88 104.72,-49.32 229.31,267.34l-343.93 203.03c-771.79,404.51 -2492.4,2344.77 -3151.52,3236.09 -5432.44,7345.85 -2573.8,14547.59 -2622.6,15351.05l-403.93 -33.52c-615.93,262.21 -1641.58,-184.94 -2185.34,-94.1 371.11,332.57 1813.83,413.34 2274.2,402.12 -55.93,279.37 -6.91,181.88 -101.41,398.24 205.17,-38.35 67.3,-47.66 204.29,46.77 166.45,-70.8 161.87,104.58 137.99,-115.98l316.1 -201.38 171.21 315.07c-104.1,729.48 1769.24,3701.26 2281.58,4351.86 1180.58,1499.16 1893.23,2233.8 3357.32,3372.97 2557.3,1989.76 6059.18,3439.83 10104.86,3467.7l-60.8 447.92c194.02,20.9 97.68,-140.68 174.42,144.01 155.19,48.84 145,16.17 300.38,97.2 88.41,-261.32 -0.29,-143.68 142.38,-175.16l-134.48 -508.77c4159.6,-97.16 7600.72,-1487.86 10164.07,-3532.22 4848.8,-3867.05 5152.58,-7153.09 5800.58,-7936.61 158.81,53.93 209.13,83.35 342.95,157.41l70.21 -156.19 75.12 -291.71c183.32,7.68 408.1,26.55 589.79,-3.43 187.27,-30.93 127.18,-30.79 254.2,-76.82l145.22 -83.02c-523.75,-134.85 -598.09,81.17 -892.05,-68.52 447.97,-2.99 235.08,56.37 581.93,-92.39l199.34 -127.25 -1194.68 156.74c44.7,-404.63 236.11,-894.86 337.22,-1356.7 112.18,-512.13 150.72,-949.46 248.44,-1445.56 194.1,-985.64 155.22,-2175.49 115.91,-3189.95 -185.83,-4795.91 -2581.36,-9131.88 -6027.91,-12126 -626.12,-543.91 -673.85,-385.87 -834.28,-805.04 409.9,-167.67 342.57,-125.88 491.56,-312.42l-288.16 -23.44 -340.95 52.57 -15.5 -230.61c-18.05,-277.71 213.18,-1421.67 24.88,-2729.76 -92.51,-642.55 -105.8,-599.32 -390.78,-719.55 462.17,1304.69 331.83,2207.89 114.43,3669.14 -290.15,12.74 -1386.9,-760.78 -2043.84,-1085.71 -737.31,-364.65 -1364.75,-656.46 -2251.42,-968.62 -1715.26,-603.85 -3583.24,-879.76 -5620.7,-868.98 -6068.33,32.01 -9062.78,2889.87 -9765.9,3050.08l-222.49 -499.43z"/>
   <path class="fil0" d="M8494.06 31150.66c23.88,220.56 28.46,45.18 -137.99,115.98 -55.23,178.89 58.07,-23.92 -121.97,217.32 -207.94,278.64 -507.1,466.2 -946.02,1100.74 -1193.62,1725.52 -639.78,2268.21 530.76,2857.23 2369.25,1192.25 3642.68,4151.4 4611.59,6520.65l231.57 382.96c325.15,193.25 3613.03,-261.1 7147.03,1804.23 802.68,469.08 1822.2,1808.51 2948.26,1167.48 1202.22,-684.45 1562.1,-2270.03 1907.04,-2412.45l60.8 -447.92c-4045.68,-27.87 -7547.56,-1477.94 -10104.86,-3467.7 -1464.09,-1139.17 -2176.74,-1873.81 -3357.32,-3372.97 -512.34,-650.6 -2385.68,-3622.38 -2281.58,-4351.86 -209.08,-164.64 -110.85,157.3 -188.26,-198.41l-299.05 84.72z"/>
   <path class="fil0" d="M14814.22 10818.09l222.49 499.43c703.12,-160.21 3697.57,-3018.07 9765.9,-3050.08 2037.46,-10.78 3905.44,265.13 5620.7,868.98 886.67,312.16 1514.11,603.97 2251.42,968.62 656.94,324.93 1753.69,1098.45 2043.84,1085.71 217.4,-1461.25 347.74,-2364.45 -114.43,-3669.14 -353.69,-302.12 -399.02,-566.65 -1104.28,-516.08 -1311.89,94.1 -1867.65,537.93 -4213.39,-366.82 -5644.73,-2177.22 -3158.05,-2986.88 -5668.02,-1382.1 -443.09,283.32 -897.59,488.38 -1350.51,704.63 -4299.83,2052.93 -5982.72,792.68 -6871.38,1526.04 -1075.89,887.84 -388.12,2251.12 -582.34,3330.81z"/>
   <path class="fil0" d="M25281.51 42970.85c217.21,183.43 413.97,735.27 652.81,1111.62 277.53,437.37 538.63,771.49 824.76,1037.5 1274.38,1184.76 1900.87,146.92 2412.48,-321.46 761.59,-697.25 1306.68,-957.94 2320.33,-1387.97 612.68,-259.92 2261.31,-707.59 2920.43,-714.08 711.51,-483.81 2172.53,1.18 2819.95,-526.86 378.12,-2204.86 2814.93,-5587.95 4659.8,-6820.7 1133.81,-757.57 1668.08,-1315.76 578.42,-2913.23 -377.05,-552.73 -923.61,-1017.64 -1015.86,-1285.01 -133.82,-74.06 -184.14,-103.48 -342.95,-157.41 -648,783.52 -951.78,4069.56 -5800.58,7936.61 -2563.35,2044.36 -6004.47,3435.06 -10164.07,3532.22l134.48 508.77z"/>
   <path class="fil0" d="M8164.33 30513.61l403.93 33.52c48.8,-803.46 -2809.84,-8005.2 2622.6,-15351.05 659.12,-891.32 2379.73,-2831.58 3151.52,-3236.09 94.28,-133.19 -61.43,-62.68 194.02,-223.23l-79.4 -247.14 -243.64 -181.26c-557.5,-0.96 -2394.73,-1330.31 -3499.26,-587.76 -568.39,382.11 -462.81,987.63 -613.75,1659.52 -340.25,1514.7 -1573,3211.91 -2638.62,4265.8 -396.81,392.41 -718.11,725.24 -1120.38,1126.28 -1564.65,1559.89 -1452.02,365.09 -796.52,2642.79 481.78,1674.11 385.25,4035.97 136.88,5647.69 -166.89,1082.87 -1084.41,2450.94 -362.65,3287.26 808.15,936.35 2340.12,950.26 2845.27,1163.67z"/>
   <path class="fil5" d="M11940.01 26369.3c-669.23,-6619.37 4636.43,-13180.26 11879.85,-13716.01 7316.47,-541.14 13325.33,5114.3 13768.9,11955.34 757.61,11683.31 -12972.24,18027.73 -21451.57,10428.89 -2263.86,-2028.78 -3801.41,-4753.6 -4197.18,-8668.22zm-630.47 748.49c539.25,1765.17 264.53,2434.37 1572.58,4821.15 1193.32,2177.48 2546.59,3176.44 2776.87,3627.8 842.85,381.92 5062.36,4846.37 12257.23,3084 669.46,-164.01 1396.13,-390.01 1978.24,-641.92 529.29,-229.05 1433.42,-766.76 1897.15,-901.57 11.52,-15.55 33.81,-57.04 39.16,-42.79 5.47,14.43 32.6,-35.36 40.43,-42.41 291.18,-261.47 1144.74,-789.43 1760.41,-1333.56 3248.05,-2870.86 3700.48,-5723.18 4057.56,-6136.89 404.37,-2940.62 884.15,-3114.08 281.52,-6896.04 -266.9,-1675.1 -1428.55,-3998.13 -2329.5,-5172.03 -1906.7,-2484.32 -5115.88,-5121.46 -9566.48,-5459.46 -4933.78,-374.65 -8492.22,1489.12 -10992.78,4038.67 -3040.73,3100.28 -3996.1,6670.71 -3772.39,11055.05z"/>
   <path class="fil0" d="M35614.65 11172.4c-148.99,186.54 -81.66,144.75 -491.56,312.42 160.43,419.17 208.16,261.13 834.28,805.04 3446.55,2994.12 5842.08,7330.09 6027.91,12126 39.31,1014.46 78.19,2204.31 -115.91,3189.95 -97.72,496.1 -136.26,933.43 -248.44,1445.56 -101.11,461.84 -292.52,952.07 -337.22,1356.7l1194.68 -156.74c784.01,-242.28 2110.92,-582.37 2411.45,-1383.4 287.23,-765.69 -686.14,-1929.22 -842.15,-2988.57 -532.98,-3618.61 639.67,-6187.72 601.5,-7054.19 -1548.3,-888.84 -3426.17,-3109.92 -4291.13,-4691.84 -255.3,-466.9 -517.29,-1003.54 -699.84,-1527.77 -216.13,-620.62 -230.53,-1237.8 -604.67,-1653.47 -988.95,-1098.74 -2621.27,98.09 -3438.9,220.31z"/>
   <path class="fil0" d="M34020.62 36037.56c760.52,-513.12 261.58,-443.54 1722.79,298.53 287.27,145.85 370.15,132.6 545.16,385.06 -393.96,803.68 -424.85,42.34 -928.12,388.09 -634.72,436.04 261.8,586.32 -596.62,939.86 -223.23,-179.48 -786.74,-1702.12 -743.21,-2011.54zm6085.16 -9278.14c13.11,-114.18 17.8,-162.14 48.73,-274.32l78.22 -141.09c417.62,81.84 154.6,-52.94 351.21,216.1 272.7,626.78 193.7,1559.15 -448.85,1880.09 -832.17,-94.58 -481.52,-585.66 -935.09,-1040.57l-139.17 890.95c-348.82,110.38 -121.97,125.96 -479.61,19.23 -141.82,-379.85 15.25,-1283.54 232.5,-1549.1l25.76 -531.14c856.99,-161.13 601.76,1440.95 1378.75,1485.32 271.77,-583.52 -40.83,-334.6 -112.45,-955.47zm-1623.97 -3950.26c-203.95,-3.02 -208.86,13.14 -278.6,44.41 240.51,1097.08 291.01,4206.26 -7.23,5332.95 -160.51,606.48 -207.46,1080.13 -506.81,1365.08 -357.08,413.71 -809.51,3266.03 -4057.56,6136.89 -615.67,544.13 -1469.23,1072.09 -1760.41,1333.56 -7.83,7.05 -34.96,56.84 -40.43,42.41 -5.35,-14.25 -27.64,27.24 -39.16,42.79 -48.8,245.7 196.94,198.86 -135.52,199.85 101.74,94.06 86.94,123.26 372.81,98.16l97.64 290.27c54.37,254.05 227.47,463.83 581.38,571.92 -68.78,-636.05 -686.44,-1039.42 239.94,-1185.27 125.63,419.65 556.46,1574.36 544.61,1982.6 -730.22,356.86 -602.56,173.91 -1072.86,-321.46l-273.1 -165.41 76.93 465.09c28.83,221.97 97.9,314.11 74.27,506.7 -44.55,363.43 39.24,-32.56 -62.49,192.07 -118.5,261.65 -39.24,-126.21 -108.68,159.84l225.48 115.43c667.46,0.3 2541.79,-1486.75 3138.19,-1980.23 2023.47,-1674.22 3417.75,-3600.78 4528.56,-6009.57 368.27,-798.58 1200.71,-3167.43 1138.43,-4126.33 -145,-710.1 240.02,-2586.76 -45.52,-4070.27l-146.7 250.25c-19.86,24.25 -35.66,46.03 -56.85,67.92 -181.66,187.86 -1.47,100.01 -291.11,169.15 -308.54,-98.49 -629.92,28.98 -963.15,48.91 -257.71,217.54 -516.15,227.21 -821.95,183.8 -139.62,-289.71 -338.07,-794.97 16.75,-989.84 212.27,-159.77 339.92,-440.44 618.89,-633.46 -71.51,-302.6 84.27,-137.66 -111.23,-233.64l-874.52 115.43z"/>
   <path class="fil2" d="M24150.4 41543.01c-965.74,52.38 -425.75,-552.29 -1173.87,-391.31 -162.94,35.07 -1034.95,665.4 -842.14,-59.8 5.2,-19.49 521.98,-959.2 547.12,-1009.33 267.22,-533.13 209.05,-685.81 942.25,-601.5 217.06,365.72 511.72,1582.22 526.64,2061.94zm4258.56 -421.94c-29.86,-621.25 -88,-2452.09 761.53,-2241.31 255.6,63.46 1244.88,1484.43 1277.63,1650.11 -673.67,541.29 -411.09,-174.02 -1101.07,10.3 -714.46,190.85 31.78,534.83 -938.09,580.9zm-2947.19 410.93c-89.23,-344.82 -103.88,-895.34 -138.43,-1308.9 -50.13,-599.05 -62.65,-710.98 543.9,-761.19 414.75,-34.33 974.86,-94.06 1190.3,196.73 341.87,461.43 -43.9,667.75 -174.06,968.87 280.11,324.67 379.75,355.42 481.3,801.32 -415.7,36.54 -502.12,122.04 -765.14,-150.69 -212.85,-220.68 -63.2,-279.26 -429.8,-522.39l-111.37 355.2c-0.04,0.26 1.18,292.74 -4.95,394.77l-591.75 26.28zm-6241.17 -1002.13c-27.13,-359.63 319.61,-1429.39 503.74,-1824.83 398.39,-49.87 963.12,157.89 1282.18,341.51 694.7,399.75 173.39,721.91 -21.63,995.01 201.33,553.24 209.01,964.85 -571.01,896.78 -309.09,-26.99 -953.26,-268.89 -1193.28,-408.47zm-3730.2 -4612.92c203.73,544.35 -349.88,1568.68 -522.79,2185.53 -559.01,-114.03 -357.93,-200.01 -540.99,-662.63 -127.69,-322.64 -357.2,-434.16 -662.71,-363.5 -20.34,25.4 -78.88,109.93 -91.54,128.31 -11.15,16.17 -38.17,88.05 -46.59,71.92 -8.68,-16.69 -30.46,50.57 -46.59,75.3 350.92,364.87 1576.2,1439.69 2043.77,1564.32l312.67 -295.14c299.5,-248.07 661.19,-1043.11 840.93,-1422.97 337.37,62.02 533.68,203.52 793.71,360.15l-239.17 838.71c5.83,202.63 -32.27,90.85 48.32,183.98l257.34 -90.14c95.75,-301.89 188.08,-357.93 427.4,-576.1 338.18,23.81 526.15,164.05 705.08,369 -112.04,568.2 -735.79,1134.18 -705.6,1557.56l-234.26 240.4c268.3,74.42 157.44,123.88 285.98,277.67 537.15,493.78 2313.51,896.56 3319.23,1127.87 2988.28,687.25 6651.18,466.05 9461.49,-724.02 291.85,-123.59 515.23,-215.14 751.12,-317.02 130.75,-56.48 317.36,-127.88 401.74,-176.9l246.08 -192.51c10.48,-36.4 39.13,-38.76 57,-59.7l-225.48 -115.43c-564.29,35.59 -636.31,-269.85 -970.06,-649.41 -280.66,-319.21 -574.03,-477.79 -603.04,-870.83 412.71,-319.87 709.43,-74.42 792.82,381.22l277.83 37.14 -29.83 -192.47c-94.1,-587.66 -413.63,-1004.5 532.28,-911.73l-97.64 -290.27c-285.87,25.1 -271.07,-4.1 -372.81,-98.16 332.46,-0.99 86.72,45.85 135.52,-199.85 -463.73,134.81 -1367.86,672.52 -1897.15,901.57 -582.11,251.91 -1308.78,477.91 -1978.24,641.92 -7194.87,1762.37 -11414.38,-2702.08 -12257.23,-3084l160.73 291.41 -329.32 58.8z"/>
   <path class="fil0" d="M21602.48 20723.9c-80,501.38 -58.55,3620.9 56.99,4072.04l-38.06 -24.33c771.42,39.02 5879.74,85.09 6190.27,-72.47 100.15,-133.96 33.81,22.34 86.86,-207.42 26.8,-115.99 22.88,-142.27 28.13,-263.43 24.58,-568.79 55.44,-3430.78 -57.81,-3545.07 -478.61,-209.09 -2859.41,-156.7 -3381.06,11.48 -20.01,296.84 -79.48,431.83 -368.78,603.93 -135.96,-303.44 22.52,-285.39 0.48,-673.33l-2344.34 -43.97c-10.55,2.99 -156.7,127.77 -172.68,142.57z"/>
   <path class="fil0" d="M8976.61 28029l-344.05 -20.82c356.6,1871.23 847.39,3339.82 1633.2,4902.55 485.95,966.4 2041.15,3388.11 2743.79,3810.9l170.92 41.46c92.25,-431.03 -38.02,-15.29 244.23,-208.8 660.64,5.8 1167.18,-957.58 1882.3,-710.21l183.4 72.87 329.32 -58.8 -160.73 -291.41c-230.28,-451.36 -1583.55,-1450.32 -2776.87,-3627.8 -1308.05,-2386.78 -1033.33,-3055.98 -1572.58,-4821.15 -342.21,73.24 -123.93,60.94 -177.34,512.9 -16.84,142.49 -65.34,464.79 -218.13,546.93 -170.74,178.01 -127.8,368.08 -506.37,377.86 -223.34,-954.99 241.46,-805.82 88.01,-1263.82 -103.51,-308.95 -151.17,-195.95 -244.27,-246.34 -373.69,482.89 51.64,1169.66 -585.95,1581.63 -461.89,-37.13 -527.63,-227.91 -688.88,-597.95z"/>
   <path class="fil6" d="M21098.14 35353.92c-333.82,-1753.72 2542.6,-2228.53 2729.84,-378.86 182.03,1798.29 -2410.12,2058.58 -2729.84,378.86zm5087.02 952.34c-292.96,-205.62 -275.68,-178.34 -452.88,-479.79 -640.33,-1964.8 1376.09,-2629.5 2241.71,-1594.32 404.63,483.88 443.54,1279.22 -42.64,1807.95 -658.16,715.79 -1059.35,411.16 -1746.19,266.16zm-1382.55 -1858.34c-347.48,-104.84 -177.67,-69 -362.62,-402.56 -346.81,-625.53 -957.46,-839.38 -1050.16,-1084.68 -268.52,-710.69 581.08,-1447.55 1232.34,-1504.7 730.11,-64.05 1683.55,718.15 1454.05,1439.51 -179.22,563.32 -530.99,-126.03 -1273.61,1552.43zm2212.62 -1597.36c-201.33,-906.97 -214.4,-1339.72 -962.86,-1867.09 -519.02,-365.72 -1487.42,-598.91 -2201.02,-282.59 -511.24,226.62 -1131.86,803.39 -1301.19,1405.29 -193.55,687.95 162.32,681.01 -569.97,834.72 -1945.02,408.28 -2393.17,2944.46 -779.9,4059.52 2132.73,1474.14 3499.03,-1166.96 3504.68,-1172.35 242.02,150.87 412.09,698.77 711.65,960.39 1927.45,1683.18 4667.29,-448.45 3507.27,-2723.53 -416.92,-817.67 -854.55,-972.27 -1908.66,-1214.36z"/>
   <path class="fil6" d="M24838.75 43048.81c-76.74,-284.69 19.6,-123.11 -174.42,-144.01 -344.94,142.42 -704.82,1728 -1907.04,2412.45 -1126.06,641.03 -2145.58,-698.4 -2948.26,-1167.48 -3534,-2065.33 -6821.88,-1610.98 -7147.03,-1804.23l-231.57 -382.96c-968.91,-2369.25 -2242.34,-5328.4 -4611.59,-6520.65 -1170.54,-589.02 -1724.38,-1131.71 -530.76,-2857.23 438.92,-634.54 738.08,-822.1 946.02,-1100.74 180.04,-241.24 66.74,-38.43 121.97,-217.32 -136.99,-94.43 0.88,-85.12 -204.29,-46.77 -702.16,206.21 -1940.41,1855.28 -2330.78,2926.45 -534.87,1467.78 1116.42,1555.97 2273.82,2580 2689.9,2379.88 3627.47,6249.69 3971.74,6482.96 538.29,222.3 1657.67,73.02 2294.75,156.71 775.55,101.84 1375.94,227.58 2048.46,407.43 2815.67,753.07 3210.44,1463.06 4790.96,2508.12 1705.07,1127.43 3429.05,-2233.18 3638.02,-3232.73z"/>
   <path class="fil6" d="M41454.63 31150.66c92.25,267.37 638.81,732.28 1015.86,1285.01 1089.66,1597.47 555.39,2155.66 -578.42,2913.23 -1844.87,1232.75 -4281.68,4615.84 -4659.8,6820.7l-124.18 310.79 -2695.77 216.07c-659.12,6.49 -2307.75,454.16 -2920.43,714.08 -1013.65,430.03 -1558.74,690.72 -2320.33,1387.97 -511.61,468.38 -1138.1,1506.22 -2412.48,321.46 -286.13,-266.01 -547.23,-600.13 -824.76,-1037.5 -238.84,-376.35 -435.6,-928.19 -652.81,-1111.62 -142.67,31.48 -53.97,-86.16 -142.38,175.16 -4.1,778.87 1264.45,2554.42 1820.77,3037.41 1460.32,1267.93 1995.22,-172.35 2986.5,-895.78 2044.11,-1491.74 4816.51,-1755.09 7762.96,-2016.82 254.27,-621.54 415.93,-1292.07 697.59,-1919.81 311.34,-693.86 575.17,-1123.66 923.58,-1716.04 1154.56,-1963.18 2124.32,-2814.44 3786.79,-4035.63 2324.95,-1707.77 -1406.98,-4557.88 -1592.48,-4604.87l-70.21 156.19z"/>
   <path class="fil7" d="M35378.13 11010.31l-51.64 138.65 288.16 23.44c817.63,-122.22 2449.95,-1319.05 3438.9,-220.31 374.14,415.67 388.54,1032.85 604.67,1653.47 182.55,524.23 444.54,1060.87 699.84,1527.77 864.96,1581.92 2742.83,3803 4291.13,4691.84 38.17,866.47 -1134.48,3435.58 -601.5,7054.19 156.01,1059.35 1129.38,2222.88 842.15,2988.57 -300.53,801.03 -1627.44,1141.12 -2411.45,1383.4l-199.34 127.25c-346.85,148.76 -133.96,89.4 -581.93,92.39 293.96,149.69 368.3,-66.33 892.05,68.52 984.16,218.06 2644.53,-689.1 3075.15,-1179.62 490.71,-558.97 252.68,-1110.15 -46.85,-1646.46 -898.4,-1608.5 -846.06,-3751.98 -641.58,-5556.17 165.01,-1456.34 650.55,-3089.24 691.05,-3502.99 -268.63,-297.05 -1464.61,-1132.74 -2642.83,-2400.99 -722.84,-778.06 -1556.27,-1946.35 -2083.2,-2993.75 -277.3,-551.25 -513.78,-1119.86 -717.37,-1825.23 -194.61,-674.33 -318.5,-1290.96 -1008.33,-1527.11 -1154.75,-395.28 -3089.51,574.7 -3837.08,1103.14z"/>
   <path class="fil6" d="M5978.99 30419.51c543.76,-90.84 1569.41,356.31 2185.34,94.1 -505.15,-213.41 -2037.12,-227.32 -2845.27,-1163.67 -721.76,-836.32 195.76,-2204.39 362.65,-3287.26 248.37,-1611.72 344.9,-3973.58 -136.88,-5647.69 -655.5,-2277.7 -768.13,-1082.9 796.52,-2642.79 402.27,-401.04 723.57,-733.87 1120.38,-1126.28 1065.62,-1053.89 2298.37,-2751.1 2638.62,-4265.8 150.94,-671.89 45.36,-1277.41 613.75,-1659.52 1104.53,-742.55 2941.76,586.8 3499.26,587.76l42.56 -175.46c-96.94,-260.1 -1191.58,-725.3 -1566.79,-884.93 -615.6,-261.91 -1415.14,-503.89 -2145.58,-410.6 -1977.62,252.53 300.45,2850.7 -5117.47,7604.55 -437.15,383.59 -939.68,753.81 -1311.45,1114.66 38.98,465.46 316.18,1080.06 443.42,1480.85 123.12,387.68 247.23,1185.82 284.69,1647.48 105.66,1300.89 170.85,2421.6 24.59,3722.27 -172.69,1535.63 -763.15,2519.16 -812.5,3109.25 -89.89,1074.67 1031.92,1890.13 1924.16,1903.08z"/>
   <path class="fil7" d="M14354.59 9767.75c219.8,261.06 214.19,256.37 283.4,675.4 52.79,319.5 78.41,396.46 202.92,600.12 -161.79,-88.55 -103.58,85.8 -26.69,-225.18 194.22,-1079.69 -493.55,-2442.97 582.34,-3330.81 888.66,-733.36 2571.55,526.89 6871.38,-1526.04 452.92,-216.25 907.42,-421.31 1350.51,-704.63 2509.97,-1604.78 23.29,-795.12 5668.02,1382.1 2345.74,904.75 2901.5,460.92 4213.39,366.82 705.26,-50.57 750.59,213.96 1104.28,516.08 284.98,120.23 298.27,77 390.78,719.55 188.3,1308.09 -42.93,2452.05 -24.88,2729.76 28.9,-161.36 -17.98,-113.81 155.78,-125.36 1162.01,-6320.61 -1352.09,-4340.78 -3678.85,-4603.25 -1177.08,-132.78 -2540.24,-714.9 -3507.53,-1163.19l-3039.15 -1699.1c-108.64,5.02 -3728.61,2936.12 -7811.98,2975.77 -679.46,6.61 -1527.51,-125.77 -1994.93,144.38 -927.94,536.26 -903.54,1992.34 -738.79,3267.58z"/>
   <path class="fil8" d="M27210.18 27257.33c-739.37,308.68 -1333.74,682.82 -2406.39,676.13 -511.6,-3.21 -931.62,-83.76 -1347.4,-218.61 -236.11,-76.6 -956.95,-446.3 -1070.58,-467.12l-101.36 -176.79c2.69,-19.23 16.02,-70.88 19.86,-90.14 4.43,-22.23 38.2,-59.92 56.85,-90.19 1610.79,48.32 3241.48,-5.98 4866.22,-33 -848.9,-320.39 -4997.27,268.3 -5470.56,-195.32 318.39,-362.87 5911.59,-160.54 6055.67,-97.68 -78.52,509.88 103.03,-91.95 -404.63,463.36 -172.32,188.45 113.7,1.22 -197.68,229.36zm1843.62 -2621.9c-36.92,534.35 -354.76,993.75 -662.63,1376.6l-7163.94 -14.14 -345.6 -535.45c-6.64,-35.44 -30.08,-41.01 -47.21,-59.77 -68.88,-733.32 -332.42,-991.76 -290.52,-2066.51 33.29,-854.69 361.58,-1264.52 484.62,-1889.9 231.01,-315.96 131.2,-85.06 290.45,-290.27l226.99 -348.18c10.37,-49.84 33.63,-59.14 56.52,-83.91 15.98,-14.8 162.13,-139.58 172.68,-142.57l2344.34 43.97c220.64,99.15 118.68,89.67 368.3,69.4 202.11,-334.38 1166.81,-175.68 1584.36,-178.34 2431.9,-15.46 1466.09,-201 2147.91,554.69l179.55 169.11c268.08,466.9 497.99,947.91 606.48,1521.42 153.68,812.43 -10.52,1223.92 47.7,1873.85zm-4212.57 -4480.43c54.45,-382.44 212.18,-568.38 355.16,-797.18 352.65,4.65 754.21,104.03 1106.9,239.28 991.35,380.19 692.67,280.59 791.68,554.21l-2253.74 3.69zm-686.63 -747.09c83.47,-46.58 -28.61,-34.18 251.8,-102.55 289.82,-70.65 -71.61,-16.09 200.89,10.86 114.4,325.07 117.62,217.76 -77.78,488.9 -135.73,468.38 -209.6,357.23 -796.85,352.72 -416.84,-3.21 -815.75,2.4 -1232.37,18.76 165.08,-424.45 -127.4,-136.92 333.45,-385.06l1320.86 -383.63zm-472.47 -591.01c444.75,15.1 717.89,-81.91 1042.85,130.31l-1386.75 274.24c-694.12,275.32 -1077.59,590.17 -1702.42,938.61 -605.7,337.85 100.04,-105.28 -588.21,799.21 -234.63,308.32 -357.19,530.62 -498.31,857.54 -431.43,999.44 -517.7,2404.58 -61.1,3488.22 238.58,566.32 247.63,463.21 67.34,955l-139.14 322.56c316.29,-31.78 598.77,-195.57 889.32,-17.98 -59.06,333.24 12.67,205.22 -488.42,252.65 -235.55,22.3 -63.16,-18.53 -182.4,40.35 660.82,291.11 711.76,-154.23 1085.2,224.41 670.12,624.49 1699.9,1187.15 3086.29,1189.22 1080.21,1.59 2681.77,-532.76 3059.67,-1217.65 23.85,-18.57 58,-79.11 72.06,-55.04 13.14,22.45 52.2,-40.31 70.4,-46.95 17.38,-6.35 53.45,-25.96 74.27,-32.16 14.62,-4.35 202.26,-19.53 235.56,-23.73l103.51 -398.47 487.28 31.68c58.14,-85.09 58.17,5.42 46.92,-276.83 -174.32,-608.1 35.51,-495.03 238.54,-1052.86 430.91,-1184.12 277.97,-2732.23 -272.62,-3724.99 -196.5,-354.31 -372.77,-521.5 -591.75,-878.43 -404.73,-659.75 -155.08,-275.43 -778.94,-683.53 -893.09,-584.18 -957.66,-626.22 -2159.21,-875.66l243.86 -608.21 -1032.11 -57.81 252.36 -1623.31c-352.29,106.87 -456.94,646.05 -649.75,1017.49 -160.02,308.39 -518.21,848.53 -524.3,1052.12z"/>
   <path class="fil9" d="M32197.78 24220.32l128.76 -189.63c276.57,-643.58 13.18,-1932.03 -128.46,-2566.75 -117.13,-524.86 -96.98,-343.64 -277.79,-675.7 -10.11,-18.56 -23.59,-45 -33.77,-64.71l-129.32 -277.16c-218.09,-497.13 -76.56,-617.4 410.39,-719.44 23.11,-4.83 89.3,-15.72 112.04,-20.71 742.62,-161.94 -546.68,281.22 274.94,-79.99 411.79,-181.03 247.04,-138.99 354.24,-678.54 557.42,141.02 406.06,37.29 584.95,293l9.9 -126.14c84.05,-60.36 26.1,-99.67 488.24,-23.96 -125.29,-254.38 -14.33,-107.79 -222.9,-323.67 -66.11,-68.44 -266.82,-212.82 -355.64,-248.18 -374.91,-149.32 -604.67,-62.24 -700.87,242.68 -97.45,459.67 -140.42,652.99 -549.7,643.47l-69.07 -673.26c24.77,-709.47 -685.29,-1427.84 -1321.52,-1652.03 -686.99,-242.09 -2107.23,-133.89 -2660.33,207.43 130.49,375.94 90.88,163.61 764.59,609.72 2298.18,1521.87 3499.07,3285.75 3321.32,6323.57z"/>
   <path class="fil0" d="M21098.14 35353.92c319.72,1679.72 2911.87,1419.43 2729.84,-378.86 -187.24,-1849.67 -3063.66,-1374.86 -2729.84,378.86z"/>
   <path class="fil0" d="M25732.28 35826.47c22.41,17.43 52.2,38.88 67.59,51.83l124.08 101.34c17.16,16.46 36.8,36.47 53.34,53.74 16.87,17.58 36.91,40.5 51.79,57.33 15.98,18.05 38.36,50.02 51.02,65.31 13.69,16.53 41.75,90.88 51.49,73.38 10.23,-18.23 35.59,51.35 53.57,76.86 686.84,145 1088.03,449.63 1746.19,-266.16 486.18,-528.73 447.27,-1324.07 42.64,-1807.95 -865.62,-1035.18 -2882.04,-370.48 -2241.71,1594.32z"/>
   <path class="fil0" d="M24802.61 34447.92c742.62,-1678.46 1094.39,-989.11 1273.61,-1552.43 229.5,-721.36 -723.94,-1503.56 -1454.05,-1439.51 -651.26,57.15 -1500.86,794.01 -1232.34,1504.7 92.7,245.3 703.35,459.15 1050.16,1084.68 184.95,333.56 15.14,297.72 362.62,402.56z"/>
   <path class="fil10" d="M24487.8 20694.7c521.65,-168.18 2902.45,-220.57 3381.06,-11.48 113.25,114.29 82.39,2976.28 57.81,3545.07 -5.25,121.16 -1.33,147.44 -28.13,263.43 -53.05,229.76 13.29,73.46 -86.86,207.42 -310.53,157.56 -5418.85,111.49 -6190.27,72.47 406.59,323.89 4293.27,129.13 4939.06,127.43 1678.5,-4.39 1378.93,-242.68 1627.52,200.71 -504.78,303.03 -5631.07,-81.51 -6816.46,166.74 133.08,-589.9 -30.89,-315.36 287.94,-470.55 -115.54,-451.14 -136.99,-3570.66 -56.99,-4072.04 -22.89,24.77 -46.15,34.07 -56.52,83.91l-226.99 348.18c-159.25,205.21 -59.44,-25.69 -290.45,290.27 560.52,-256.19 155.89,-45.7 302.81,40.09 -120.52,1019.08 51.83,3378.62 -90.55,3658.21 -256.52,503.86 -24.51,200.3 -406.36,258.11 17.13,18.76 40.57,24.33 47.21,59.77l345.6 535.45c-123.22,-994.05 938.83,-659.89 3087.11,-661.77 896.48,-0.78 3070.38,-104.18 3817.61,66 213.26,379.49 238.14,129.5 259.22,609.91 307.87,-382.85 625.71,-842.25 662.63,-1376.6 -422.68,419.95 -32.05,640.22 -540.15,839.6 -383.58,-571.27 -230.86,-1269.15 -231.6,-2035.5 -0.67,-715.49 29.9,-1468.93 -74.64,-2148.5 153.38,-163.09 -73.21,-65.75 192.21,-50.87l-179.55 -169.11c-681.82,-755.69 283.99,-570.15 -2147.91,-554.69 -417.55,2.66 -1382.25,-156.04 -1584.36,178.34z"/>
   <path class="fil11" d="M21227.23 25997.89l7163.94 14.14c-21.08,-480.41 -45.96,-230.42 -259.22,-609.91 -747.23,-170.18 -2921.13,-66.78 -3817.61,-66 -2148.28,1.88 -3210.33,-332.28 -3087.11,661.77z"/>
   <path class="fil12" d="M36729.78 16489.22c178.6,-285.14 4.69,-183.4 390.93,-285.28 -12.07,178.89 71.29,47.43 -41.27,266.38 -96.68,188.15 -66.04,97.6 -172.13,204.14 -108.5,73.05 -387.35,344.12 -485.84,523.2 -177.86,323.45 3.76,457.34 123.22,655.17 378.93,30.78 576.36,-80.26 856.43,-209.72 153.83,-117.28 -114.25,-51.27 218.17,-138.76 196.24,-51.68 187.16,-18.57 367.31,-13.11 -80.07,304.7 -53.83,270.18 -361.55,448.41 -283.92,84.31 -584.81,198.6 -681.97,524.2l262.24 316.25c321.31,-25.77 1361.73,-734.06 1626.15,-1004.8 -89,-292.81 -356.82,-590.86 -564.91,-879.31l-1071.76 303.33c64.12,-442.14 161.54,-307.91 430.8,-678.32 283.88,-390.6 190.34,-278.3 -11.92,-656.79l-117.35 -119.83c-14.7,-16.06 -33.41,-42.45 -49.58,-59.51 -15.28,-16.05 -28.98,-42.15 -45.04,-57.62 -242.05,-232.94 5.87,-176.09 -343.49,-175.61l-1418.06 976.89 264.53 488.05c526.93,-84.24 422.98,-279.33 825.09,-427.36z"/>
   <path class="fil5" d="M20099.44 11496.26c-240.06,-277.27 -172.51,-182.1 -181.73,-570.97 366.82,97.9 355.56,162.21 486.13,569.42l87.42 80.22c100.48,93.24 102.73,183.5 404.99,372.14 507.47,-146.44 421.2,-110.08 414.3,-713.28 -5.02,-435.85 -151.46,-731.8 301.12,-711.06l97.86 355.94c-1.03,343.05 77.63,592.19 176.97,824.39l593.15 -137.81 -512.45 -1870.97c-349.55,7.24 -772.01,175.5 -1023.84,310.24l-31.68 1055.33c-379.78,-129.28 -324.08,-188.19 -678.17,-816.49 -411.97,-10.19 -686.17,100.82 -1056.91,240.21 -7.98,348.88 387.24,1592.52 516.74,1841.21 845.39,-67.66 551.73,-218.42 406.1,-828.52z"/>
   <path class="fil4" d="M9880.26 25621.69l685.51 12.11 74.31 -467.68c-89.78,-21.34 -84.79,-53.34 -290.11,-80.58l-655.51 -23.78c-377.16,-94.24 -121.82,-42.93 -241.97,-157.33 20.19,-20.19 45.14,-85.5 58.73,-62.39 13.69,23.22 54.19,-42.23 71.35,-48.39 637.6,-228.73 -440.76,83.98 188.68,-41.68 624.05,-45.26 1098.04,-14.62 1021.88,-790.35 -200.23,-118.69 -503.41,-261.47 -799.91,-312.97 -278.45,-82.14 -293.7,-88.93 -428.48,-306.76 409.5,-251.66 634.21,34.03 1174.98,10.22l100.37 -449.77c-580.34,-179.56 -1105.76,1.81 -1454.64,-303.3l-441.95 118.43 -37.51 917.37c562.18,435.16 776.92,160.92 929.45,585.96 -468.52,262.35 -1051.67,-79.74 -1076.63,776.91l94.65 559.12 1026.8 64.86z"/>
   <path class="fil12" d="M32126.54 37695.53c-945.91,-92.77 -626.38,324.07 -532.28,911.73 249.8,224.66 129.76,33.44 157.55,371.88 -427.81,-83.87 -152.23,34.33 -405.55,-216.55 -83.39,-455.64 -380.11,-701.09 -792.82,-381.22 29.01,393.04 322.38,551.62 603.04,870.83 333.75,379.56 405.77,685 970.06,649.41 69.44,-286.05 -9.82,101.81 108.68,-159.84 101.73,-224.63 17.94,171.36 62.49,-192.07 23.63,-192.59 -45.44,-284.73 -74.27,-506.7 -6.27,-7.97 -154.23,-41.31 -193.91,-296.43 -83.91,-539.44 -2.7,-151.9 97.53,-303.96 391.78,173.91 186.68,95.8 292.55,300.71 470.3,495.37 342.64,678.32 1072.86,321.46 11.85,-408.24 -418.98,-1562.95 -544.61,-1982.6 -926.38,145.85 -308.72,549.22 -239.94,1185.27 -353.91,-108.09 -527.01,-317.87 -581.38,-571.92z"/>
   <path class="fil12" d="M38594.03 22022.83l26.84 635.94c453.39,39.2 528.66,-156.33 1007.05,-43.23l-160.36 311.83c-278.97,193.02 -406.62,473.69 -618.89,633.46 -89.92,404.18 -77.37,521.02 67.04,884.26l738.16 -78.22c333.23,-19.93 654.61,-147.4 963.15,-48.91 192.66,-400.38 175.68,-325.15 51.68,-875.7l-902.13 150.65c120.27,-616.26 1069.03,-1173.42 580.67,-1726.41 -157.14,-177.93 -1459.18,103.36 -1753.21,156.33z"/>
   <path class="fil7" d="M24464.32 13594.11c-26.1,738.86 -486.1,453.21 -1213.33,485.36 85.32,442.72 503.23,416.22 840.12,863.74l-101.7 635.31 -104.99 391.19 251.39 -88.41 546.2 -447.34c551.77,166.53 479.31,472.29 1034.81,616.82 -75.64,-545.35 -254.31,-568.72 -261.14,-1246.37 205.62,-123.89 740.22,-419.02 809.03,-737.05 -961.09,-28.46 -1353.64,295.88 -1318.2,-880.98 -25.18,-13.66 -238.81,-111.74 -249.36,-120.19 -8.97,40.71 -60.07,284.76 -77.6,325.11 -81.69,187.9 -51.24,91.7 -155.23,202.81z"/>
   <path class="fil5" d="M10720.74 20863.85c729.7,-279.12 1146.33,-85.35 1177.15,-1125.1 -439.58,34.77 -793.19,310.34 -1111.92,366.16 -591.82,103.62 -242.27,-167.08 -632.21,-811.18 -803.83,509.32 -47.1,1180.81 -22.29,1773.26 -478.76,-37.21 -205.92,-126.77 -661.3,-127.91 -110.67,237.36 -168.11,417.8 -200.71,644.94 227.77,181.04 1449.55,656.17 1828.78,645.1l212.26 -645.1c-373.18,-319.35 -504.3,-110.63 -589.76,-720.17z"/>
   <path class="fil12" d="M31443.42 12495.37c-714.6,-11.04 -679.46,-229.32 -373.1,-757.61l275.46 -348.78c337.89,123.6 254.83,94.69 492.49,312.57 -1.7,507.36 -57.22,540.84 -394.85,793.82zm-1526.92 -210.6c190.15,193.14 1008.01,599.17 1232.86,692.01 1195.49,493.55 1995.78,-958.61 936.87,-1701.2 -299.42,-209.97 -971.39,-593.67 -1326.4,-611.83l-843.33 1621.02z"/>
   <path class="fil7" d="M15869.11 32274.32c540.22,-139.43 1159.95,-138.1 1509.17,149.83 -88.56,60.18 -25.4,57.55 -200.16,97.2 -91.88,20.82 -81.28,8.86 -182.25,18.53 -108.86,10.41 -263.87,6.8 -393.11,17.65 -264.31,22.18 -475.09,47.8 -751,63.94l-507.51 193.32c-102.4,840.85 1346.11,2224.95 1778.94,2495.32 806.71,503.85 2637.59,935.57 2778.72,-736.98 -457.38,283.18 -277.61,554.84 -275.72,585l-282.77 -370.08c-3.21,-11.22 4.21,-41.31 3.06,-50.24 -11.3,-88.3 231.53,-67.15 -13.03,-68l-0.22 97.68c-145.67,-106.72 -11.41,-266.16 0,488.28 -355.49,-192.33 -189.19,180.84 -390.64,-292.96 -32.63,298.79 -91.18,306.73 -97.68,650.59l-640.55 -320.76 -725.67 60.8 -9.34 -297.35c-0.63,-8.12 1.51,-32.7 0.36,-39.42l-18.6 -51.46c-2.7,-4.73 -19.34,-20.79 -23.04,-25.77l-535.34 -855.58c6.72,13.55 -9.56,39.2 -13.47,43.3 -3.73,3.95 -16.32,33.63 -21.97,37.54 -312.08,217.21 -646.71,-246.77 -722.5,-447.81 -2.44,-6.46 -53.64,-314.41 -54.63,-321.13 -65.82,-442.83 -609.36,-683.41 616.11,-773.08 576.87,-42.19 656.68,28.06 781.42,192.59 658.56,-88.3 63.42,-778.32 195.32,-879.39 -200.78,156.3 7.31,64.19 -285.8,134.77 -199.64,48.11 -88.71,26.62 -296.47,15.88 -101.03,-5.21 -1481.92,-147.22 -1221.63,187.79z"/>
   <path class="fil5" d="M15935.63 38621.06l61.21 438.63c429.43,17.31 272.51,103.54 463.21,-232.94 93.58,-165.19 178.41,-413.82 217.36,-505.77l214.84 -340.62c127.65,79.37 165.46,-138.61 159.25,255.75l-116.5 341.91c-8.42,-16.61 -38.06,64.01 -57.37,95.83 -54.67,78.44 -120.27,210.71 -141.86,336.08 -78.67,456.12 -30.53,273.83 110.71,404.14 340.65,294.22 557.12,-303.81 811.83,-502.63 189.34,-346.3 -28.09,-183.21 434.5,-349.52 -41.02,225.59 28.12,103.11 -93.7,346.08 -167.89,334.79 22.52,-15.54 -163.05,183.1 -206.1,378.16 -744.17,1120.04 227.58,750.15 -30.19,-423.38 593.56,-989.36 705.6,-1557.56 -178.93,-204.95 -366.9,-345.19 -705.08,-369 -239.32,218.17 -331.65,274.21 -427.4,576.1l-437.04 260.32c-32.93,-411.27 -107.17,-136.55 131.38,-354.16l239.17 -838.71c-260.03,-156.63 -456.34,-298.13 -793.71,-360.15 -179.74,379.86 -541.43,1174.9 -840.93,1422.97z"/>
   <path class="fil13" d="M28010.39 10206.37l-28.13 -303.92c-504.48,-138.25 -59.91,30.86 -271.92,-215.84 -426.14,40.97 -350.84,-99.01 -487.61,354.97 -37.02,122.86 -149.95,636.01 -160.1,802.87 -40.42,666.35 341.69,864.88 898.33,1027.16 1335.96,389.5 1762.37,-445.97 1766.91,-1691.93l-725.9 -39.53c-338.44,676.65 12.59,1773.88 -1120.93,1142.96 -71.43,-518.99 85.68,-604.08 129.35,-1076.74z"/>
   <path class="fil14" d="M27210.18 27257.33c1.03,-286.61 94.06,-71.91 -63.75,-245.23l-3711.6 58.47c-1166,-7.82 -946.13,-169.22 -1049.02,177.16 113.63,20.82 834.47,390.52 1070.58,467.12 415.78,134.85 835.8,215.4 1347.4,218.61 1072.65,6.69 1667.02,-367.45 2406.39,-676.13z"/>
   <path class="fil4" d="M26537.66 40139.23c-281.81,246.38 -211.3,172.4 -584.85,129.13 4.47,-621.61 506.92,-588.09 584.85,-129.13zm-1075.89 1392.77l591.75 -26.28c6.13,-102.03 4.91,-394.51 4.95,-394.77l111.37 -355.2c366.6,243.13 216.95,301.71 429.8,522.39 263.02,272.73 349.44,187.23 765.14,150.69 -101.55,-445.9 -201.19,-476.65 -481.3,-801.32 130.16,-301.12 515.93,-507.44 174.06,-968.87 -215.44,-290.79 -775.55,-231.06 -1190.3,-196.73 -606.55,50.21 -594.03,162.14 -543.9,761.19 34.55,413.56 49.2,964.08 138.43,1308.9z"/>
   <path class="fil5" d="M17901.55 12093.1c211.15,284.69 34.22,243.68 -16.43,333.16 -421.61,190.67 -385.36,-44.63 -386.72,-490.86 173.13,15.21 302.96,22.59 403.15,157.7zm-461.03 1413.6c164.9,-520.29 132.59,-528.3 676.54,-731.48 508.28,-285.46 518.58,268.52 1215.65,-273.5 -112.04,-306.18 -1404.21,-1201.59 -1678.75,-1338.73l-751.52 459.82c-21.96,470.26 -14.03,1004.57 -5.46,1477.93 12.36,684.26 98.93,596.33 543.54,405.96z"/>
   <path class="fil5" d="M20472.87 40392.43c-271.36,101.96 -442.54,239.51 -578.75,-253.2 30.56,-22.99 110,-304.84 477.31,-77 206.39,127.98 120.05,184.87 101.44,330.2zm51.9 -1092.13l95.28 75.45c147.88,143.01 160.58,-221.19 121.86,275.17 -310.35,239.69 -843.92,102.62 -601.53,-462.92 269.26,-41.16 64.19,-35.07 249.65,7.94 529.59,122.82 -181.62,-172.98 134.74,104.36zm-1304.17 1229.57c240.02,139.58 884.19,381.48 1193.28,408.47 780.02,68.07 772.34,-343.54 571.01,-896.78 195.02,-273.1 716.33,-595.26 21.63,-995.01 -319.06,-183.62 -883.79,-391.38 -1282.18,-341.51 -184.13,395.44 -530.87,1465.2 -503.74,1824.83z"/>
   <path class="fil5" d="M12776.69 15648.48c108.61,-832 708.37,-223.01 924.91,-1128.91 -580.38,-18.79 -766.17,170.66 -1130.71,595.41 -302.89,352.91 -446.75,653.65 -275.98,1105.46 842,373.1 950.86,-533.94 1733.76,-558.23 8.23,916.93 -993.98,340.06 -1032.33,1234.18 755.36,328.51 2116.6,-1245.07 1408.72,-1816.26 -563.51,-518.66 -854.18,448.37 -1628.37,568.35z"/>
   <path class="fil12" d="M38923.43 20234.04c-168.78,118.38 147.73,75.45 -282.81,78.96 -128.76,-121.86 -182.4,-47.84 -205.39,-429.69 403.4,-217.06 305.02,-186.54 738.22,-84.91 -55.7,387.94 18.79,222.86 -250.02,435.64zm448.74 -966.07l-1962.23 -113.07c33.97,891.5 447.6,502.74 755.21,1091.91 424.27,812.69 -255.67,185.53 213.26,1424.78 501.61,-202.63 2127.61,-2019.82 993.76,-2403.62z"/>
   <path class="fil15" d="M9677.93 26613.9l-93.58 1303.73c-686.81,-103.03 -207.69,-551.26 -316.74,-1255.34l-241.53 -70.32c-195.69,505.33 -148.07,861.01 -49.47,1437.03 161.25,370.04 226.99,560.82 688.88,597.95 637.59,-411.97 212.26,-1098.74 585.95,-1581.63 93.1,50.39 140.76,-62.61 244.27,246.34 153.45,458 -311.35,308.83 -88.01,1263.82 378.57,-9.78 335.63,-199.85 506.37,-377.86 87.08,-923.47 -32.34,-1916.71 -988,-1922.39l-248.14 358.67z"/>
   <path class="fil5" d="M26071.68 10331.55l-916.45 -133.82c-420.17,-204.43 -263.1,-302.77 38.02,-527.62 417.18,69.54 252.57,91.66 348.18,175.75 280.89,205.28 381.48,156.78 760.01,151.13 -63.35,-290.6 -87.3,-293.85 -210.23,-483.88 -648.82,-36.92 -1850.34,-305.81 -1847.31,644.79 170.07,631.4 1419.57,171.51 1404.77,878.95 -666.58,301.41 -285.32,-291.92 -1458.22,-221.01 124.14,1451.39 3514.54,330.32 1881.23,-484.29z"/>
   <path class="fil6" d="M29701.07 35195.04c918.26,1429.91 3979.23,-292.99 4421.84,-2380.25 -230.39,-193.77 -486.62,-281.99 -777.29,-260.33l-1404.25 -63.82 31.42 -291.41c-119.02,5.21 -350.81,9.56 -431.21,29.13 -103.18,242.64 80.66,569.71 96.68,586.91 658.68,0 864.52,-173.13 1275.79,-176.93 513.34,-4.77 487.17,209.16 509.98,379.04 4.25,31.64 5.8,58.7 5.21,89.11 -0.56,27.73 -10.3,54.71 -15.25,80.04 -142.27,730.21 235.81,-565.4 -164.64,269.11l-243.86 530.58 195.32 195.32c-395.4,0.03 -609.55,143.85 -683.64,97.64 174.24,66.44 50.17,-117.06 108.68,129.94l-11 358.37 -822.95 158.92c-211.34,74.2 -793.6,1182.8 -1617.54,135.04 114.21,94.79 97.19,-20.68 96.68,291.99 -295.1,-117.39 -298.13,-131.38 -569.97,-158.4z"/>
   <path class="fil16" d="M22385.81 27247.73c102.89,-346.38 -116.98,-184.98 1049.02,-177.16l3711.6 -58.47c157.81,173.32 64.78,-41.38 63.75,245.23 311.38,-228.14 25.36,-40.91 197.68,-229.36 507.66,-555.31 326.11,46.52 404.63,-463.36 -144.08,-62.86 -5737.28,-265.19 -6055.67,97.68 473.29,463.62 4621.66,-125.07 5470.56,195.32 -1624.74,27.02 -3255.43,81.32 -4866.22,33 -18.65,30.27 -52.42,67.96 -56.85,90.19 -3.84,19.26 -17.17,70.91 -19.86,90.14l101.36 176.79z"/>
   <path class="fil0" d="M29053.8 24635.43c-58.22,-649.93 105.98,-1061.42 -47.7,-1873.85 -108.49,-573.51 -338.4,-1054.52 -606.48,-1521.42 -265.42,-14.88 -38.83,-112.22 -192.21,50.87 104.54,679.57 73.97,1433.01 74.64,2148.5 0.74,766.35 -151.98,1464.23 231.6,2035.5 508.1,-199.38 117.47,-419.65 540.15,-839.6z"/>
   <path class="fil5" d="M34611.08 36371.05c393.92,24.66 557.16,105.98 527.29,524.27 -418.65,56 -516.33,-69.7 -527.29,-524.27zm749.37 738.19c503.27,-345.75 534.16,415.59 928.12,-388.09 -175.01,-252.46 -257.89,-239.21 -545.16,-385.06 -1461.21,-742.07 -962.27,-811.65 -1722.79,-298.53 -43.53,309.42 519.98,1832.06 743.21,2011.54 858.42,-353.54 -38.1,-503.82 596.62,-939.86z"/>
   <path class="fil4" d="M38813.72 26760.71c-4.51,277.53 -40.06,476.31 -84.98,755.95 -71.36,444.49 -111.19,355.38 -24.7,684.55 476.98,22.85 94.95,188.27 285.98,-465.65 158.37,-542.17 -14.62,-138.69 209.98,-335.93 453.57,454.91 102.92,945.99 935.09,1040.57 642.55,-320.94 721.55,-1253.31 448.85,-1880.09l-289.52 -97.9 -188.64 297.21c71.62,620.87 384.22,371.95 112.45,955.47 -776.99,-44.37 -521.76,-1646.45 -1378.75,-1485.32l-25.76 531.14z"/>
   <path class="fil5" d="M23240.07 40211.25c16.02,13.29 240.13,48.07 206.17,318.14 -37.88,301.15 -62.54,168.33 -303.81,220.6 -51.31,-84.53 -163.65,121.16 -97.24,-298.75 46.7,-295.25 174.17,-221.38 194.88,-239.99zm910.33 1331.76c-14.92,-479.72 -309.58,-1696.22 -526.64,-2061.94 -733.2,-84.31 -675.03,68.37 -942.25,601.5 -25.14,50.13 -541.92,989.84 -547.12,1009.33 -192.81,725.2 679.2,94.87 842.14,59.8 748.12,-160.98 208.13,443.69 1173.87,391.31z"/>
   <path class="fil5" d="M14548.44 36937.95c-251.73,-423.82 -37.18,-454.39 390.71,-510.87 -28.69,367.94 -61.1,456.94 -390.71,510.87zm-1123.74 -383.66l-25.73 325.82 364.94 196.24c305.51,-70.66 535.02,40.86 662.71,363.5 183.06,462.62 -18.02,548.6 540.99,662.63 172.91,-616.85 726.52,-1641.18 522.79,-2185.53l-183.4 -72.87c-715.12,-247.37 -1221.66,716.01 -1882.3,710.21z"/>
   <path class="fil5" d="M29358.01 39725.71l2.74 86.57c167.55,177.85 133.19,-277.31 142.56,229.28 -263.42,266.38 -140.94,224.11 -525.63,188.3l-47.07 -751.19c336.56,-6.05 263.72,-31.15 427.4,247.04zm-949.05 1395.36c969.87,-46.07 223.63,-390.05 938.09,-580.9 689.98,-184.32 427.4,530.99 1101.07,-10.3 -32.75,-165.68 -1022.03,-1586.65 -1277.63,-1650.11 -849.53,-210.78 -791.39,1620.06 -761.53,2241.31z"/>
   <path class="fil14" d="M21028.52 21446.26c-123.04,625.38 -451.33,1035.21 -484.62,1889.9 -41.9,1074.75 221.64,1333.19 290.52,2066.51 381.85,-57.81 149.84,245.75 406.36,-258.11 142.38,-279.59 -29.97,-2639.13 90.55,-3658.21 -146.92,-85.79 257.71,-296.28 -302.81,-40.09z"/>
   <path class="fil12" d="M15232.03 15118.82c60.28,-24.74 1547.59,-914.06 1543.94,-1426.81 -550.59,-217.5 -710.03,464.17 -1258.62,535.68l-773.6 -1020.19c-344.93,33.96 -466.2,206.32 -666.72,368.49 287.09,496.32 690.68,1128.45 1155,1542.83z"/>
   <path class="fil6" d="M34471.35 14556.89c14.55,-26.69 47.73,-86.64 61.32,-67.51 13.51,18.97 45.7,-47.85 65.08,-63.02l401.75 -263.94 57.33 -186.02c328.13,-14.76 116.65,-30.45 488.71,134.6 82.36,14.98 170.81,-49.88 292.04,51.42l1.26 780.75 380.26 0.52c58.92,-27.54 157.55,208.2 126.54,-285.46 -24.43,-388.9 -1150.64,-1427.18 -1499.93,-1563.91l-1249.76 1360.58c121.37,251.61 286.83,413.45 612.53,516.44l262.87 -414.45z"/>
   <path class="fil12" d="M13181.69 28783.36c440.54,51.17 1051.9,97.09 1482.07,194.58 447.71,101.48 840.11,320.87 1298.56,436.41 -249.73,-340.47 44.45,-128.61 -741.92,-513.34 -397.72,-194.58 192.96,-90.74 -671.48,-90.74 69.25,-208.27 160.69,-201.66 -210.94,-180.99 -380.45,21.15 -509.21,76.26 -960.97,77.52l-357.82 -1643.83c-38.1,-186.42 -32.82,-212.15 -32.82,-400.68l159.22 -116.21c401.93,-265.45 105.94,-201.37 621.57,-273.94 11.85,17.38 443.69,23.29 97.16,390.63l302.01 -26.95c20.93,7.87 48.61,20.49 69.29,31.79 307.35,168.51 0.73,-198.35 204.95,190l-47.77 -42.75c0.44,-2.51 -6.16,-24.73 -4.8,-28.02 126.03,-301.34 -257.92,38.65 160.44,-156.15 119.45,141.2 43.78,75.42 271.43,82.69 -256.26,-355.01 -841.33,-641.8 -1275.53,-820.95 -46.66,-19.27 -208.42,-87.34 -295.32,-90.15 -1193.21,-38.24 -52.93,2596.32 -67.33,2981.08z"/>
   <path class="fil12" d="M21621.41 24771.61l38.06 24.33c-318.83,155.19 -154.86,-119.35 -287.94,470.55 1185.39,-248.25 6311.68,136.29 6816.46,-166.74 -248.59,-443.39 50.98,-205.1 -1627.52,-200.71 -645.79,1.7 -4532.47,196.46 -4939.06,-127.43z"/>
   <path class="fil7" d="M33159.13 14107.86c229.13,-581.41 838.42,-1073.49 952.26,-1646.93 -229.94,-130.31 -316.25,-272.47 -623.05,-324.52l-1049.54 1537.22c214.37,273.43 322.94,364.02 720.33,434.23z"/>
   <path class="fil6" d="M11251.69 16944.82c-15.83,305.77 -15.65,277.79 81.44,512.05l1376.78 804.42 259.26 -343.79 58.51 -367.56c-525.86,-79.48 -119.38,-8.53 -297.46,-181.85 -234.3,-187.38 -1014.62,-698.95 -1233.3,-765.14l-245.23 341.87z"/>
   <path class="fil17" d="M16677.41 38320.98c-38.95,91.95 -123.78,340.58 -217.36,505.77 -190.7,336.48 -33.78,250.25 -463.21,232.94l-61.21 -438.63 -312.67 295.14c337.77,508.39 2105.31,1371.99 2492.4,1443.12 -128.54,-153.79 -17.68,-203.25 -285.98,-277.67l234.26 -240.4c-971.75,369.89 -433.68,-371.99 -227.58,-750.15l60.95 -277.05 -238.7 97.39c-254.71,198.82 -471.18,796.85 -811.83,502.63 -141.24,-130.31 -189.38,51.98 -110.71,-404.14 21.59,-125.37 87.19,-257.64 141.86,-336.08l14.1 -390.16c-95.24,-35.69 -17.86,-72.13 -214.32,37.29z"/>
   <path class="fil18" d="M34999.5 14162.42l-401.75 263.94c-19.38,15.17 -51.57,81.99 -65.08,63.02 -13.59,-19.13 -46.77,40.82 -61.32,67.51l353.17 23.3c89.11,507.1 -70.77,439.88 -47.7,851.04 22.56,402.52 138.81,272.95 322.61,573.59l316.99 40.64 -6.17 -975.81 701.09 7.01 107.76 -132.97 -380.26 -0.52 -1.26 -780.75c-121.23,-101.3 -209.68,-36.44 -292.04,-51.42 119.91,323.08 70.85,96.94 115.33,460.96 -430.14,-25.66 -470.01,-81.96 -661.37,-409.54z"/>
   <path class="fil19" d="M35697.38 30867.52c162.65,-137.25 24.43,89.85 214.07,-238.77 33.78,-58.62 84.68,-210.53 107.09,-279.15 70.43,-215.88 121.97,-431.02 139.06,-660.56 66,-886.15 -251.02,-704.34 -1026.02,-685.37 402.74,-183.98 134.78,-100.96 273.54,-220.64 -871.2,16.06 -2322.89,449.66 -2477.52,1182.58 426.07,-46.44 846.17,-417.66 1331.82,-585.04 520.36,-179.29 1097.27,-229.98 1721.02,-212.29 44.96,919.85 -60.43,954.03 -283.06,1699.24z"/>
   <path class="fil20" d="M24841.23 20155l2253.74 -3.69c-99.01,-273.62 199.67,-174.02 -791.68,-554.21 -352.69,-135.25 -754.25,-234.63 -1106.9,-239.28 -142.98,228.8 -300.71,414.74 -355.16,797.18z"/>
   <path class="fil11" d="M24529.51 19805.12l42.2 -391.89 -417.11 -5.32 -1320.86 383.63c-460.85,248.14 -168.37,-39.39 -333.45,385.06 416.62,-16.36 815.53,-21.97 1232.37,-18.76 587.25,4.51 661.12,115.66 796.85,-352.72z"/>
   <path class="fil21" d="M13284.65 29264.11c400.49,-171.47 1220.3,-144.3 1599.53,148.54 690.5,-4.54 966.47,491.27 1519.87,574.07 -161.95,-450.55 -247.33,-226.14 -441.73,-572.37 -458.45,-115.54 -850.85,-334.93 -1298.56,-436.41 -430.17,-97.49 -1041.53,-143.41 -1482.07,-194.58 139.39,123.93 -44.89,162.43 248.62,222.75l-145.66 258z"/>
   <path class="fil2" d="M31443.42 12495.37c337.63,-252.98 393.15,-286.46 394.85,-793.82 -237.66,-217.88 -154.6,-188.97 -492.49,-312.57l-275.46 348.78c-306.36,528.29 -341.5,746.57 373.1,757.61z"/>
   <path class="fil22" d="M15851.76 32621.47c275.91,-16.14 486.69,-41.76 751,-63.94 129.24,-10.85 284.25,-7.24 393.11,-17.65 100.97,-9.67 90.37,2.29 182.25,-18.53 174.76,-39.65 111.6,-37.02 200.16,-97.2 -349.22,-287.93 -968.95,-289.26 -1509.17,-149.83 -523.82,-120.02 -263.72,135.44 -1045.77,-220.09 294.18,546.12 652.96,351.1 1232.16,337.96l-203.74 229.28z"/>
   <path class="fil23" d="M31972.79 32199.23l-31.42 291.41 1404.25 63.82 -132.45 -125.65c-399.49,-211.75 -349.77,-33.75 -700.54,-169.3l1157.85 66.49c-126.4,-204.11 181.1,-124.67 -363.73,-232.49 -9.93,-1.96 -464.65,-15.03 -497.43,-13.96 -377.2,12.63 -589.83,123.56 -836.53,119.68z"/>
   <path class="fil24" d="M9993.22 23648.65c-23.89,-37.58 -104.18,-200.63 -133.12,-226.88 466.98,-14.18 527.67,121.93 977.29,25.69 194.29,-344.19 171.92,-329.13 66.45,-701.9l-1518.39 -146.52c348.88,305.11 874.3,123.74 1454.64,303.3l-100.37 449.77c-540.77,23.81 -765.48,-261.88 -1174.98,-10.22 134.78,217.83 150.03,224.62 428.48,306.76z"/>
   <path class="fil25" d="M25541.43 9845.86l-543.02 -78.11c97.86,452.65 -94.84,164.97 156.82,429.98l916.45 133.82 -147.66 -181.92c487.54,-19.82 301.15,71.4 538.3,-187.05 -93.14,-400.64 -17.06,-322.19 -371.11,-449.47 122.93,190.03 146.88,193.28 210.23,483.88 -378.53,5.65 -479.12,54.15 -760.01,-151.13z"/>
   <path class="fil26" d="M21720.09 27082.02c-373.44,-378.64 -424.38,66.7 -1085.2,-224.41 119.24,-58.88 -53.15,-18.05 182.4,-40.35 501.09,-47.43 429.36,80.59 488.42,-252.65 -290.55,-177.59 -573.03,-13.8 -889.32,17.98l139.14 -322.56c-188.79,90.99 -91.07,-67.74 -253.83,206.94 150.57,839.97 641.88,575.36 1418.39,615.05z"/>
   <path class="fil27" d="M27866.05 27053.59l1005.42 -38.09c208.35,-212.16 259.18,-240.84 331.8,-548.53 -170.92,-303.77 -75.24,-105.98 -247.22,-214.88 11.25,282.25 11.22,191.74 -46.92,276.83l-487.28 -31.68 -103.51 398.47c-33.3,4.2 -220.94,19.38 -235.56,23.73 -20.82,6.2 -56.89,25.81 -74.27,32.16 -18.2,6.64 -57.26,69.4 -70.4,46.95 -14.06,-24.07 -48.21,36.47 -72.06,55.04z"/>
   <path class="fil28" d="M9486.93 27542.35c47.47,521.09 46.4,14.88 -114.44,223.7 -142.57,-293.88 -117.69,-152.46 0,-441.02 74.2,95.87 91.99,-29.16 114.44,217.32zm191 -928.45l-207.76 337.58c-63.94,-369.52 -9.97,-255.49 -195.32,-521.57 -472.29,29.27 -98.6,-29.05 -248.77,162.06l241.53 70.32c109.05,704.08 -370.07,1152.31 316.74,1255.34l93.58 -1303.73z"/>
   <path class="fil28" d="M9880.26 25621.69c206.72,207.54 381.33,199.6 815.56,111.74 160.66,-407.28 154.27,-295.87 11.52,-703.78 -397.69,-98.38 -933.8,35.29 -936.09,-277.68 -629.44,125.66 448.92,-187.05 -188.68,41.68 -17.16,6.16 -57.66,71.61 -71.35,48.39 -13.59,-23.11 -38.54,42.2 -58.73,62.39 120.15,114.4 -135.19,63.09 241.97,157.33l655.51 23.78c205.32,27.24 200.33,59.24 290.11,80.58l-74.31 467.68 -685.51 -12.11z"/>
   <path class="fil29" d="M39200 27399.63c-224.6,197.24 -51.61,-206.24 -209.98,335.93 -191.03,653.92 191,488.5 -285.98,465.65 -86.49,-329.17 -46.66,-240.06 24.7,-684.55 44.92,-279.64 80.47,-478.42 84.98,-755.95 -217.25,265.56 -374.32,1169.25 -232.5,1549.1 357.64,106.73 130.79,91.15 479.61,-19.23l139.17 -890.95z"/>
   <path class="fil29" d="M34412.32 42696.46l2695.77 -216.07 124.18 -310.79c-647.42,528.04 -2108.44,43.05 -2819.95,526.86z"/>
   <path class="fil30" d="M34589.15 22117.63c-138.8,125.51 -59.44,2.51 -183.29,193.36 -52.78,81.4 -71.35,163.39 -107.79,244.6l24.03 -599.06c-158.07,144.23 -81.32,-124.14 -187.19,306.51 -56.34,229.32 -4.54,633.5 140.64,868.54 263.39,-112.11 261.29,-138.62 313.6,-1013.95z"/>
   <path class="fil31" d="M14710.94 22235.28c-13.4,222.49 -19.2,482.67 41.27,717.48 76.78,298.09 76.41,256.49 388.23,294.48 117.91,-369.53 226.26,-843.15 -92.32,-1069.22l1 841.63c-231.35,-338.69 -46.63,-427.29 -338.18,-784.37z"/>
   <path class="fil32" d="M13524.19 30482.71l-142.16 -1236.62 1502.15 166.56c-379.23,-292.84 -1199.04,-320.01 -1599.53,-148.54 -17.87,221.3 -17.72,398.98 2.4,622.2 6.49,72.47 29.93,278.08 53.49,340.77 172.39,459 -20.68,39.27 183.65,255.63z"/>
   <path class="fil33" d="M20491.26 11574.93l307.35 483.95c786.52,-17.01 628.26,-450.99 654.69,-1119.71 134.08,-117.16 -184.61,-163.23 256.23,-60.5l-97.86 -355.94c-452.58,-20.74 -306.14,275.21 -301.12,711.06 6.9,603.2 93.17,566.84 -414.3,713.28 -302.26,-188.64 -304.51,-278.9 -404.99,-372.14z"/>
   <path class="fil34" d="M34999.5 14162.42c191.36,327.58 231.23,383.88 661.37,409.54 -44.48,-364.02 4.58,-137.88 -115.33,-460.96 -372.06,-165.05 -160.58,-149.36 -488.71,-134.6l-57.33 186.02z"/>
   <path class="fil35" d="M35099.43 16004.82c186.23,179.29 -292.34,223.85 348.03,160.95 142.75,-361.7 100.56,-582.12 69.22,-988.52 236.22,48.99 594.66,226.66 594.66,-100.59l-701.09 -7.01 6.17 975.81 -316.99 -40.64z"/>
   <path class="fil36" d="M38481.81 22809.16l874.52 -115.43c195.5,95.98 39.72,-68.96 111.23,233.64l160.36 -311.83c-478.39,-113.1 -553.66,82.43 -1007.05,43.23l-26.84 -635.94c-325.81,201.12 -166.82,365.02 -112.22,786.33z"/>
   <path class="fil37" d="M23338.23 19221.45l1386.75 -274.24c-324.96,-212.22 -598.1,-115.21 -1042.85,-130.31 174.42,382.48 85.42,91.59 -343.9,404.55z"/>
   <path class="fil25" d="M13009.55 36721.63c161.51,324.59 310.35,434.9 569.64,630.25 16.13,-24.73 37.91,-91.99 46.59,-75.3 8.42,16.13 35.44,-55.75 46.59,-71.92 12.66,-18.38 71.2,-102.91 91.54,-128.31l-364.94 -196.24 25.73 -325.82c-282.25,193.51 -151.98,-222.23 -244.23,208.8l-170.92 -41.46z"/>
   <path class="fil20" d="M19894.12 40139.23c136.21,492.71 307.39,355.16 578.75,253.2 18.61,-145.33 104.95,-202.22 -101.44,-330.2 -367.31,-227.84 -446.75,54.01 -477.31,77z"/>
   <path class="fil38" d="M25952.81 40268.36c373.55,43.27 303.04,117.25 584.85,-129.13 -77.93,-458.96 -580.38,-492.48 -584.85,129.13z"/>
   <path class="fil39" d="M35138.37 36895.32c29.87,-418.29 -133.37,-499.61 -527.29,-524.27 10.96,454.57 108.64,580.27 527.29,524.27z"/>
   <path class="fil34" d="M17885.12 12426.26c50.65,-89.48 227.58,-48.47 16.43,-333.16 -100.19,-135.11 -230.02,-142.49 -403.15,-157.7 1.36,446.23 -34.89,681.53 386.72,490.86z"/>
   <path class="fil40" d="M39653.87 24366.87l-738.16 78.22c-144.41,-363.24 -156.96,-480.08 -67.04,-884.26 -354.82,194.87 -156.37,700.13 -16.75,989.84 305.8,43.41 564.24,33.74 821.95,-183.8z"/>
   <path class="fil24" d="M14945.83 26662.77c107.35,205.88 110.08,411.97 688.39,508.18 -165.53,-500.57 -264.31,-499.76 -544.24,-629.89l57.29 200.97 -201.44 -79.26z"/>
   <path class="fil17" d="M23142.43 40749.99c241.27,-52.27 265.93,80.55 303.81,-220.6 33.96,-270.07 -190.15,-304.85 -206.17,-318.14 -20.71,18.61 -148.18,-55.26 -194.88,239.99 -66.41,419.91 45.93,214.22 97.24,298.75z"/>
   <path class="fil26" d="M32712.49 18761.42c-332.05,268.41 -164.27,228.87 -390.12,454.76 -99.37,-179.63 7.87,-151.1 -228.65,-484.55l69.07 673.26c409.28,9.52 452.25,-183.8 549.7,-643.47z"/>
   <path class="fil32" d="M29360.75 39812.28c-9.6,304.95 55.29,109.19 -45.19,313.85 -377.9,-51.46 -280.48,-1.66 -291.48,-486.8 245.01,28.76 152.39,0.22 333.93,86.38 -163.68,-278.19 -90.84,-253.09 -427.4,-247.04l47.07 751.19c384.69,35.81 262.21,78.08 525.63,-188.3 -9.37,-506.59 24.99,-51.43 -142.56,-229.28z"/>
   <path class="fil41" d="M14548.44 36937.95c329.61,-53.93 362.02,-142.93 390.71,-510.87 -427.89,56.48 -642.44,87.05 -390.71,510.87z"/>
   <path class="fil42" d="M24487.8 20694.7c-249.62,20.27 -147.66,29.75 -368.3,-69.4 22.04,387.94 -136.44,369.89 -0.48,673.33 289.3,-172.1 348.77,-307.09 368.78,-603.93z"/>
   <path class="fil43" d="M38640.62 20313l-103.29 -386.84 505.04 -28.53 -118.94 336.41c268.81,-212.78 194.32,-47.7 250.02,-435.64 -433.2,-101.63 -334.82,-132.15 -738.22,84.91 22.99,381.85 76.63,307.83 205.39,429.69z"/>
   <path class="fil44" d="M16649.98 18957.88c96.01,447.85 36.21,448.3 438.11,466.87 112.44,-233.71 132.85,-389.24 109.89,-722.88l-208.09 516.85c-232.78,-85.94 9.82,50.83 -175.09,-99.96l-164.82 -160.88z"/>
   <path class="fil10" d="M20620.05 39375.75l3.29 250.33c-548.01,19.67 -366.68,3.13 -463.66,-341.99l365.09 16.21c-316.36,-277.34 394.85,18.46 -134.74,-104.36 -185.46,-43.01 19.61,-49.1 -249.65,-7.94 -242.39,565.54 291.18,702.61 601.53,462.92 38.72,-496.36 26.02,-132.16 -121.86,-275.17z"/>
   <path class="fil45" d="M34328.97 26719.84c-359.44,33.3 -165.45,63.68 -225.59,-154.75 -210.86,152.24 -130.42,22.04 -268,253.91 -94.06,158.47 -23.26,105.39 -49.84,249.91 614.31,-86.53 409.21,-142.71 543.43,-349.07z"/>
   <path class="fil14" d="M38640.62 20313c430.54,-3.51 114.03,39.42 282.81,-78.96l118.94 -336.41 -505.04 28.53 103.29 386.84z"/>
   <path class="fil46" d="M29360.75 39812.28l-2.74 -86.57c-181.54,-86.16 -88.92,-57.62 -333.93,-86.38 11,485.14 -86.42,435.34 291.48,486.8 100.48,-204.66 35.59,-8.9 45.19,-313.85z"/>
   <path class="fil46" d="M20620.05 39375.75l-95.28 -75.45 -365.09 -16.21c96.98,345.12 -84.35,361.66 463.66,341.99l-3.29 -250.33z"/>
   <path class="fil47" d="M20099.44 11496.26c-33.63,-526.26 -46.85,-157.85 141.13,-292.18 40.97,578.72 -13.29,102.88 163.27,290.63 -130.57,-407.21 -119.31,-471.52 -486.13,-569.42 9.22,388.87 -58.33,293.7 181.73,570.97z"/>
   <path class="fil30" d="M37401.12 17643.11l319.91 10.08 -95.98 286.46c307.72,-178.23 281.48,-143.71 361.55,-448.41 -180.15,-5.46 -171.07,-38.57 -367.31,13.11 -332.42,87.49 -64.34,21.48 -218.17,138.76z"/>
   <path class="fil45" d="M24135.81 15881.3l-251.39 88.41 104.99 -391.19c-141.09,133.34 -94.62,4.36 -195.47,203.18 -107.68,212.37 -52.08,141.87 -80.73,355.57 489.86,-55.71 247.85,54.04 422.6,-255.97z"/>
   <path class="fil48" d="M32223.44 39043l-76.93 -465.09 273.1 165.41c-105.87,-204.91 99.23,-126.8 -292.55,-300.71 -100.23,152.06 -181.44,-235.48 -97.53,303.96 39.68,255.12 187.64,288.46 193.91,296.43z"/>
   <path class="fil49" d="M17440.52 13506.7c431.39,-239.81 57.32,-46.26 332.86,-420.73 109.16,-148.36 20.19,-24.91 150.32,-142.78l193.36 -167.97c-543.95,203.18 -511.64,211.19 -676.54,731.48z"/>
   <path class="fil49" d="M24464.32 13594.11c103.99,-111.11 73.54,-14.91 155.23,-202.81 17.53,-40.35 68.63,-284.4 77.6,-325.11 10.55,8.45 224.18,106.53 249.36,120.19 -87.05,-283.95 27.43,-160.65 -241.54,-258.96 -233.52,268.19 -194.73,306.55 -240.65,666.69z"/>
   <path class="fil31" d="M16677.41 38320.98c196.46,-109.42 119.08,-72.98 214.32,-37.29l-14.1 390.16c19.31,-31.82 48.95,-112.44 57.37,-95.83l116.5 -341.91c6.21,-394.36 -31.6,-176.38 -159.25,-255.75l-214.84 340.62z"/>
   <path class="fil50" d="M17658.31 38911.44l238.7 -97.39 -60.95 277.05c185.57,-198.64 -4.84,151.69 163.05,-183.1 121.82,-242.97 52.68,-120.49 93.7,-346.08 -462.59,166.31 -245.16,3.22 -434.5,349.52z"/>
   <path class="fil30" d="M36729.78 16489.22l199.9 -82.36 -22.37 267.6c106.09,-106.54 75.45,-15.99 172.13,-204.14 112.56,-218.95 29.2,-87.49 41.27,-266.38 -386.24,101.88 -212.33,0.14 -390.93,285.28z"/>
   <path class="fil29" d="M28010.39 10206.37c100.37,-127.47 132.12,209.27 118.53,-341.43l-418.58 -178.33c212.01,246.7 -232.56,77.59 271.92,215.84l28.13 303.92z"/>
   <path class="fil40" d="M24529.51 19805.12c195.4,-271.14 192.18,-163.83 77.78,-488.9 -272.5,-26.95 88.93,-81.51 -200.89,-10.86 -280.41,68.37 -168.33,55.97 -251.8,102.55l417.11 5.32 -42.2 391.89z"/>
   <path class="fil36" d="M25155.23 10197.73c-251.66,-265.01 -58.96,22.67 -156.82,-429.98l543.02 78.11c-95.61,-84.09 69,-106.21 -348.18,-175.75 -301.12,224.85 -458.19,323.19 -38.02,527.62z"/>
   <path class="fil45" d="M35326.49 11148.96l51.64 -138.65 -311.08 52.97 58.77 -217.72c-173.76,11.55 -126.88,-36 -155.78,125.36l15.5 230.61 340.95 -52.57z"/>
   <path class="fil30" d="M11333.13 17456.87c-97.09,-234.26 -97.27,-206.28 -81.44,-512.05 -189.96,155.45 -85.38,-174.72 -233.6,278.01l315.04 234.04z"/>
   <path class="fil51" d="M31346.26 38762.59c253.32,250.88 -22.26,132.68 405.55,216.55 -27.79,-338.44 92.25,-147.22 -157.55,-371.88l29.83 192.47 -277.83 -37.14z"/>
   <path class="fil11" d="M9372.49 27766.05c160.84,-208.82 161.91,297.39 114.44,-223.7 -22.45,-246.48 -40.24,-121.45 -114.44,-217.32 -117.69,288.56 -142.57,147.14 0,441.02z"/>
   <path class="fil52" d="M12969.17 17917.5c85.61,-94.83 49.21,-24.44 146.37,-190.89 61.42,-105.17 5.28,20.68 33.66,-144.41 -182.25,-146.37 -134.7,-111.08 -418.98,-214.11 178.08,173.32 -228.4,102.37 297.46,181.85l-58.51 367.56z"/>
   <path class="fil53" d="M40105.78 26759.42l188.64 -297.21 289.52 97.9c-196.61,-269.04 66.41,-134.26 -351.21,-216.1l-78.22 141.09c-30.93,112.18 -35.62,160.14 -48.73,274.32z"/>
   <path class="fil42" d="M37613.68 15864.21l-310.72 -540.26c-459.77,-9.93 -104.87,-34.36 -244.74,127.69 349.36,-0.48 101.44,-57.33 343.49,175.61 16.06,15.47 29.76,41.57 45.04,57.62 16.17,17.06 34.88,43.45 49.58,59.51l117.35 119.83z"/>
   <path class="fil35" d="M14342.38 11959.99l343.93 -203.03c-124.59,-316.66 31.42,-107.46 -229.31,-267.34l79.4 247.14c-255.45,160.55 -99.74,90.04 -194.02,223.23z"/>
   <path class="fil26" d="M17636.76 38490.79l-257.34 90.14c-80.59,-93.13 -42.49,18.65 -48.32,-183.98 -238.55,217.61 -164.31,-57.11 -131.38,354.16l437.04 -260.32z"/>
   <path class="fil33" d="M8494.06 31150.66l299.05 -84.72c77.41,355.71 -20.82,33.77 188.26,198.41l-171.21 -315.07 -316.1 201.38z"/>
   <path class="fil52" d="M26185.16 36306.26c-17.98,-25.51 -43.34,-95.09 -53.57,-76.86 -9.74,17.5 -37.8,-56.85 -51.49,-73.38 -12.66,-15.29 -35.04,-47.26 -51.02,-65.31 -14.88,-16.83 -34.92,-39.75 -51.79,-57.33 -16.54,-17.27 -36.18,-37.28 -53.34,-53.74l-124.08 -101.34c-15.39,-12.95 -45.18,-34.4 -67.59,-51.83 177.2,301.45 159.92,274.17 452.88,479.79z"/>
  </g>
 </g>
</svg>
